<svg xmlns="http://www.w3.org/2000/svg" width="64" height="66" viewBox="0 0 64 66" fill="none">
    <script xmlns="" />
    <path
        d="M38.2298 62.2354L38.0292 62.401L38.7744 63.3061C38.8733 63.4194 38.9521 63.5488 39.0076 63.6887C39.0442 63.7896 39.0442 63.9003 39.0076 64.0012C38.9597 64.1128 38.8833 64.2098 38.786 64.2824C38.6949 64.3645 38.584 64.4215 38.4642 64.448C38.3578 64.4636 38.2493 64.4404 38.1586 64.3827C38.032 64.3017 37.9204 64.1995 37.8286 64.0806L37.0834 63.1755L36.8828 63.3411L37.628 64.2462C37.7821 64.458 38.0012 64.6137 38.2519 64.6894C38.4665 64.7407 38.6951 64.6665 38.9376 64.4666C39.1802 64.2668 39.2968 64.0565 39.2875 63.8356C39.2604 63.5741 39.1491 63.3285 38.9703 63.1358L38.2298 62.2354Z"
        fill="#22444B" />
    <path
        d="M39.8051 60.9387L40.878 62.2415L38.8687 61.712L38.6914 61.8567L40.05 63.5059L40.2424 63.3484L39.1672 62.0433L41.1812 62.574L41.3561 62.4305L39.9975 60.7812L39.8051 60.9387Z"
        fill="#22444B" />
    <path d="M40.6644 60.2063L40.4727 60.3643L41.831 62.0135L42.0228 61.8556L40.6644 60.2063Z"
        fill="#22444B" />
    <path
        d="M42.3151 58.873L40.9961 59.9589L41.1442 60.1409L41.7075 59.6767L42.9168 61.1452L43.108 60.9877L41.8987 59.5192L42.4643 59.0538L42.3151 58.873Z"
        fill="#22444B" />
    <path
        d="M42.4688 58.746L43.9288 59.1822L44.4827 59.8552L44.6728 59.6989L44.1189 59.0259L43.9685 57.5107L43.7294 57.7067L43.8705 58.9197L42.7078 58.5488L42.4688 58.746Z"
        fill="#22444B" />
    <path d="M45.0863 56.5666L44.8945 56.7246L46.2529 58.3739L46.4446 58.2159L45.0863 56.5666Z"
        fill="#22444B" />
    <path
        d="M45.5781 56.1848L46.9367 57.834L47.128 57.6754L46.0539 56.3714L48.0679 56.9021L48.2417 56.7586L46.8842 55.1094L46.6918 55.2668L47.7647 56.5697L45.7542 56.039L45.5781 56.1848Z"
        fill="#22444B" />
    <path
        d="M49.1039 53.4521C48.9114 53.4941 48.7323 53.583 48.5826 53.7111L47.9844 54.2033L49.343 55.8526L49.9412 55.3603C50.0943 55.2358 50.2144 55.0756 50.2911 54.8938C50.3642 54.7242 50.3869 54.5371 50.3564 54.3549C50.3183 54.1623 50.233 53.9821 50.1083 53.8305C49.9835 53.6788 49.8232 53.5605 49.6415 53.486C49.4692 53.4237 49.2827 53.4119 49.1039 53.4521V53.4521ZM49.9121 53.9968C50.0114 54.1123 50.0796 54.2512 50.1103 54.4004C50.1375 54.5392 50.1229 54.6829 50.0683 54.8133C50.0073 54.9557 49.9114 55.0804 49.7896 55.1761L49.3838 55.5108L48.3272 54.2278L48.7342 53.893C48.8512 53.7915 48.9921 53.7213 49.1436 53.6889C49.2815 53.6608 49.4246 53.6738 49.5552 53.7262C49.6956 53.784 49.8185 53.8773 49.9121 53.9968V53.9968Z"
        fill="#22444B" />
    <path d="M49.9925 52.5237L49.8008 52.6816L51.1592 54.3309L51.3509 54.173L49.9925 52.5237Z"
        fill="#22444B" />
    <path
        d="M50.3203 52.2761L52.3343 53.3842L52.5512 53.2057L51.8468 51.0176L51.6346 51.1925L52.2585 53.0727L50.5349 52.0988L50.3203 52.2761Z"
        fill="#22444B" />
    <path
        d="M53.5725 52.0637L53.1095 51.5003L53.9153 50.8366L53.7684 50.6582L52.9625 51.3218L52.5124 50.776L53.4477 50.005L53.2984 49.8242L52.1719 50.7527L53.5293 52.4019L54.6768 51.4572L54.5276 51.2764L53.5725 52.0637Z"
        fill="#22444B" />
    <path
        d="M55.1535 49.7776C55.2467 49.7049 55.321 49.6109 55.3704 49.5035C55.4127 49.4101 55.4272 49.3064 55.4123 49.2049C55.3947 49.1024 55.3507 49.0062 55.2847 48.9259C55.2186 48.8455 55.1328 48.7837 55.0357 48.7465C54.9394 48.714 54.8357 48.7099 54.7371 48.7349C54.6233 48.7643 54.5179 48.8198 54.4292 48.897L53.6992 49.4988L55.0567 51.1481L55.2467 50.9918L54.6158 50.2208L54.9132 49.9759L56.0502 50.3258L56.2963 50.124L55.1301 49.7951L55.1535 49.7776ZM55.003 49.5945L54.4642 50.0377L54.0374 49.5187L54.5762 49.0755C54.6503 49.0045 54.7477 48.963 54.8503 48.9588C54.8961 48.9611 54.9408 48.9736 54.9811 48.9954C55.0215 49.0172 55.0564 49.0477 55.0835 49.0848C55.1147 49.1189 55.138 49.1595 55.1517 49.2036C55.1654 49.2478 55.1692 49.2944 55.1628 49.3402C55.1438 49.4422 55.0866 49.5331 55.003 49.5945V49.5945Z"
        fill="#22444B" />
    <path
        d="M57.1148 48.2555C57.0028 48.2452 56.89 48.262 56.7859 48.3045C56.6658 48.3548 56.549 48.4125 56.436 48.4772C56.3344 48.5393 56.2275 48.5924 56.1165 48.6358C56.0506 48.6632 55.9785 48.6725 55.9078 48.6626C55.8484 48.6477 55.7958 48.6132 55.7585 48.5646C55.7204 48.5219 55.6939 48.47 55.6816 48.414C55.6694 48.358 55.6718 48.2998 55.6885 48.245C55.7405 48.1017 55.8343 47.9774 55.9579 47.8881C56.0397 47.8196 56.1308 47.7631 56.2285 47.7202C56.3283 47.6774 56.4334 47.648 56.541 47.6327V47.3994C56.4098 47.4157 56.2815 47.4498 56.1597 47.5009C56.0356 47.5504 55.9199 47.6189 55.8168 47.7038C55.6517 47.8324 55.5257 48.0045 55.4529 48.2007C55.4221 48.2943 55.4174 48.3945 55.4394 48.4905C55.4614 48.5865 55.5092 48.6746 55.5777 48.7454C55.6346 48.8198 55.7114 48.8764 55.7993 48.9087C55.8983 48.9335 56.0023 48.9295 56.099 48.897C56.2583 48.8457 56.4113 48.7765 56.555 48.6906C56.6821 48.6206 56.7777 48.574 56.8407 48.5436C56.9041 48.5156 56.9731 48.5024 57.0424 48.5051C57.0801 48.5069 57.1169 48.5171 57.15 48.5351C57.1831 48.5531 57.2117 48.5783 57.2337 48.609C57.2695 48.6502 57.2937 48.7003 57.3039 48.7539C57.3142 48.8076 57.3101 48.863 57.292 48.9145C57.2433 49.0462 57.1574 49.1609 57.0448 49.2446C56.9413 49.3315 56.8258 49.403 56.7019 49.4569C56.5891 49.5083 56.4677 49.538 56.3439 49.5444L56.3567 49.7777C56.4968 49.767 56.6342 49.7339 56.7637 49.6797C56.9199 49.6202 57.0653 49.5355 57.1941 49.4289C57.3103 49.3382 57.4067 49.2247 57.4774 49.0953C57.5376 48.9889 57.5659 48.8675 57.5591 48.7454C57.5494 48.63 57.5041 48.5204 57.4296 48.4317C57.392 48.3823 57.3446 48.3412 57.2904 48.3109C57.2363 48.2807 57.1765 48.2618 57.1148 48.2555V48.2555Z"
        fill="#22444B" />
    <path d="M57.0159 46.7385L56.8242 46.8965L58.1826 48.5458L58.3743 48.3878L57.0159 46.7385Z"
        fill="#22444B" />
    <path
        d="M58.8159 45.5831L58.6666 45.4023L57.3477 46.4894L57.4969 46.6702L58.0602 46.2072L59.2684 47.6756L59.4608 47.517L58.2514 46.0485L58.8159 45.5831Z"
        fill="#22444B" />
    <path
        d="M60.3212 44.04L60.0821 44.2372L60.2221 45.449L59.0594 45.0793L58.8203 45.2752L60.2815 45.7126L60.8355 46.3845L61.0256 46.2282L60.4716 45.5563L60.3212 44.04Z"
        fill="#22444B" />
    <path
        d="M47.5815 14.1807L47.3203 14.2098L47.4579 14.4279C47.5197 14.3575 47.5622 14.2723 47.5815 14.1807Z"
        fill="white" />
    <path
        d="M56.6336 28.7961C55.8304 27.9913 55.0273 27.1857 54.2242 26.3793C54.1881 26.3432 54.1473 26.3105 54.089 26.2627C53.8091 26.7467 53.535 27.2133 53.2656 27.6903L58.0131 31.5464C58.0038 31.5114 57.9884 31.4782 57.9677 31.4484C57.577 30.6401 57.1828 29.8318 56.7922 29.0235C56.7529 28.939 56.6993 28.8621 56.6336 28.7961Z"
        fill="white" />
    <path
        d="M53.602 29.3306C53.5647 29.3002 53.5332 29.2478 53.4609 29.2793V29.2886L54.458 33.2776L60.7181 38.8389L59.1076 33.8678C59.0623 33.7692 58.9904 33.6852 58.9 33.6252C58.8813 33.6118 58.8634 33.5974 58.8464 33.582L55.0166 30.4725C54.5455 30.0922 54.074 29.7116 53.602 29.3306Z"
        fill="#39BDCA" />
    <path
        d="M55.2751 24.2539C55.0353 24.5932 54.8269 24.9535 54.6523 25.3305L56.0109 26.6893H56.0296L56.0156 26.6007L55.3695 24.4697C55.3426 24.3959 55.311 24.3238 55.2751 24.2539V24.2539Z"
        fill="#1695B5" />
    <path
        d="M31.6626 51.8029C31.6239 51.7979 31.585 51.7956 31.546 51.7959C31.4014 51.7959 31.2579 51.8204 31.118 51.8321C31.0044 51.9928 30.9027 52.1616 30.8136 52.3371C30.7786 52.4054 30.7482 52.4759 30.7227 52.5482C30.7576 52.5273 30.7821 52.5144 30.8043 52.4993L31.6684 51.8577C31.6742 51.8521 31.6779 51.8447 31.6789 51.8367C31.6744 51.825 31.669 51.8137 31.6626 51.8029V51.8029Z"
        fill="white" />
    <path
        d="M45.6819 13.3978L47.0323 13.2322C47.4743 13.1785 47.9186 13.1319 48.3594 13.0665C48.4608 13.0441 48.5661 13.0473 48.6658 13.0758C48.7656 13.1043 48.8567 13.1572 48.9309 13.2298C48.9577 13.2567 48.9892 13.2812 49.0172 13.3068L55.9618 19.3848C56.3023 19.6834 56.644 19.9832 56.9857 20.2806C57.0274 20.3166 57.0664 20.3555 57.1023 20.3973C57.0769 20.3538 57.0451 20.3145 57.0078 20.2806V20.2806L48.8761 13.1657C48.8183 13.1143 48.7492 13.0775 48.6743 13.0584H48.6626L48.6393 13.0525H48.5227H48.4877H48.4749L44.8516 13.4946C44.8599 13.4972 44.8689 13.4972 44.8772 13.4946L45.6819 13.3978Z"
        fill="#1F414A" />
    <path
        d="M59.8919 33.1102C59.9117 33.151 59.9292 33.193 59.9479 33.235V33.2268C59.9394 33.1993 59.9289 33.1723 59.9164 33.1464V33.1464L57.668 28.5146C57.6843 28.5531 57.7006 28.5928 57.7193 28.6313C58.4454 30.1243 59.1696 31.6172 59.8919 33.1102Z"
        fill="#1F414A" />
    <path
        d="M53.4444 33.3841C53.4135 33.2374 53.3746 33.0926 53.3278 32.9502C53.2112 33.0773 52.9103 33.5532 52.5815 34.1376L52.4858 34.3079L52.4648 34.3464C52.4823 34.3464 52.5022 34.3545 52.515 34.3464C52.5313 34.3326 52.5455 34.3165 52.557 34.2985L53.4596 33.5147C53.4608 33.4704 53.4549 33.4272 53.4444 33.3841Z"
        fill="#F7FBFF" />
    <path
        d="M41.3818 56.8155L41.0879 56.5356L37.3561 52.9665C37.0063 52.6317 36.6564 52.2981 36.3066 51.9622C36.2732 51.9255 36.2325 51.8962 36.1871 51.8761C36.1417 51.856 36.0927 51.8456 36.043 51.8456C35.2127 51.8378 34.3828 51.8265 33.5532 51.8117C33.453 51.8085 33.3551 51.8421 33.278 51.9062C33.1754 51.9879 33.0681 52.0613 32.9631 52.1395L25.8646 57.3882L25.769 57.4582C25.7281 57.4885 25.692 57.5258 25.6523 57.5597C25.8168 57.7381 33.0856 63.8511 33.2465 63.948C33.2672 63.9415 33.2868 63.9321 33.3048 63.92C36.0127 61.6097 38.7194 59.2984 41.4249 56.9858C41.4462 56.9607 41.4653 56.9337 41.4821 56.9053L41.3818 56.8155Z"
        fill="#39BDCA" />
    <path
        d="M46.1032 8.80598C46.1727 8.87341 46.2207 8.95979 46.2415 9.05437C46.2622 9.14895 46.2547 9.24753 46.2198 9.33785C46.1743 9.46849 46.1312 9.59912 46.0869 9.73092L44.874 13.2861C44.853 13.3479 44.8379 13.4132 44.8204 13.4762H44.8332L46.2478 9.32852C46.2794 9.23481 46.2825 9.13383 46.2568 9.03833C46.231 8.94284 46.1776 8.85711 46.1032 8.79198L38.832 1.61523C41.2134 3.96433 43.5928 6.31614 45.9702 8.67068C46.0157 8.7185 46.0612 8.76049 46.1032 8.80598Z"
        fill="#1F414A" />
    <path d="M20.9336 12.1864L21.0001 12.1631L20.9336 12.1864Z" fill="#1F414A" />
    <path
        d="M24.737 52.7037C24.7943 52.6314 24.8316 52.5453 24.8455 52.4541L24.6566 52.4669L24.5621 52.4739C24.534 52.481 24.5067 52.4907 24.4805 52.5031C24.4991 52.6302 24.5143 52.7422 24.5341 52.853C24.5475 52.8899 24.5651 52.9251 24.5866 52.958C24.6321 52.881 24.6706 52.8192 24.7032 52.7574L24.737 52.7037Z"
        fill="white" />
    <path
        d="M28.3346 52.0986C28.0862 52.1511 27.8297 52.1266 27.5801 52.1966C27.3679 52.5621 27.1564 52.9275 26.9457 53.293C26.3906 54.2557 25.8343 55.2175 25.2769 56.1786L25.2279 56.2638C25.1859 56.3144 25.1601 56.3766 25.1538 56.4421C25.1476 56.5076 25.1612 56.5735 25.193 56.6312C25.2431 56.5985 25.2816 56.5752 25.3166 56.5496C25.558 56.3723 25.7959 56.1903 26.0408 56.0177C26.105 55.9711 26.1623 55.9158 26.211 55.8532L26.3276 55.6479L28.3416 52.1616C28.3436 52.1404 28.3412 52.1189 28.3346 52.0986Z"
        fill="white" />
    <path
        d="M28.7576 52.0634C28.155 53.1061 27.5545 54.1462 26.9558 55.1835L26.8672 55.3374L26.8952 55.3701C26.9207 55.3575 26.9452 55.3431 26.9686 55.3269C27.3185 55.068 27.6684 54.8056 28.0264 54.5478C28.0522 54.5285 28.0761 54.5066 28.0975 54.4825L28.241 54.2329L29.5238 52.0039C29.2674 52.0088 29.0116 52.0286 28.7576 52.0634V52.0634Z"
        fill="white" />
    <path
        d="M29.9195 51.9592L28.8828 53.7601L28.8 53.9047C28.793 53.9175 28.8 53.9374 28.8 53.9642C28.8249 53.9513 28.8491 53.9369 28.8723 53.921C29.2315 53.6574 29.5883 53.3903 29.9487 53.1279C29.9689 53.1139 29.9876 53.0978 30.0047 53.0801L30.1539 52.8211L30.7009 51.874C30.4291 51.902 30.1831 51.9102 29.9195 51.9592Z"
        fill="white" />
    <path
        d="M26.0242 52.332L25.258 52.4113L24.7845 53.2278L24.7262 53.3293L24.6562 53.4553C24.6737 53.5987 24.6831 53.7445 24.7099 53.8868C24.7298 54.0675 24.7649 54.2462 24.8148 54.421C24.8633 54.3549 24.9085 54.2864 24.9501 54.2157C25.2592 53.72 25.953 52.5117 26.0242 52.332Z"
        fill="white" />
    <path
        d="M27.1645 52.3031C27.1734 52.277 27.1734 52.2487 27.1645 52.2227L26.4263 52.2926C26.3902 52.3521 26.3529 52.4093 26.319 52.4699L25.0281 54.7024L24.9826 54.7817C24.9794 54.7883 24.9755 54.7946 24.9709 54.8004L24.9464 54.8435C24.9391 54.8562 24.9328 54.8694 24.9278 54.8832C24.9069 54.9309 24.8969 54.9827 24.8986 55.0348C24.9418 55.3147 24.9931 55.5935 25.0514 55.9283C25.0864 55.8804 25.1109 55.8513 25.1295 55.8256L25.1972 55.709L27.1645 52.3031Z"
        fill="white" />
    <path
        d="M53.2383 27.7297C53.5042 27.977 57.8482 31.4971 58.001 31.5904C58.0094 31.5756 58.0127 31.5583 58.0103 31.5414L53.2628 27.6865L53.2383 27.7297Z"
        fill="#25454C" />
    <path d="M18.9023 15.3329L19.019 15.1463L19.1601 14.9375L19.019 15.1463L18.9023 15.3329Z"
        fill="#1F414A" />
    <path d="M36.8159 2.32129L36.7891 2.33645L36.8054 2.35278L36.8159 2.32129Z" fill="#1F414A" />
    <path
        d="M6.99195 32.0619C6.97881 31.9952 6.98282 31.9261 7.00361 31.8613C6.98282 31.9261 6.97881 31.9952 6.99195 32.0619V32.0619Z"
        fill="#1F414A" />
    <path
        d="M60.6761 38.688C60.1735 37.132 59.6662 35.5761 59.1659 34.0225C59.1491 33.9731 59.1292 33.9247 59.1064 33.8778L60.7181 38.8443L54.458 33.283L53.4609 29.2939C53.4703 29.3383 53.4784 29.3803 53.4889 29.4211C53.8085 30.7041 54.1315 31.9871 54.4475 33.2701C54.4752 33.3736 54.5358 33.4653 54.6201 33.5314C55.3618 34.1877 56.1031 34.8455 56.844 35.5049L60.584 38.8268C60.6236 38.8618 60.6668 38.8921 60.7193 38.9329C60.7316 38.8488 60.7164 38.7629 60.6761 38.688V38.688Z"
        fill="#25454C" />
    <path
        d="M56.0094 26.5997C56.0078 26.5852 56.005 26.5707 56.0012 26.5566C55.7271 25.5815 55.4974 24.8327 55.3633 24.4688L56.0094 26.5997Z"
        fill="#1F414A" />
    <path
        d="M54.6406 25.3536C54.6849 25.4037 54.7328 25.462 54.7864 25.5157C55.1798 25.9045 55.5732 26.2933 55.9666 26.6821C55.9666 26.6879 55.9876 26.6821 56.0051 26.6821L54.6511 25.3232L54.6406 25.3536Z"
        fill="#25454C" />
    <path
        d="M12.3459 48.7976L12.1663 48.7556L11.6847 48.6518L11.1016 48.5352C11.2875 48.7327 11.4931 48.9109 11.715 49.067C11.7733 49.1102 11.8316 49.1498 11.8782 49.1837L11.9704 49.123C12.087 49.0495 12.2036 48.9749 12.3202 48.8979C12.3451 48.8787 12.3689 48.8581 12.3914 48.8361L12.3459 48.7976Z"
        fill="white" />
    <path
        d="M47.3207 14.21H47.3125C47.3403 14.2956 47.3878 14.3735 47.4513 14.4374L47.4583 14.4269L47.3207 14.21Z"
        fill="#1F414A" />
    <path
        d="M45.2383 14.5065C45.2389 14.4992 45.2389 14.4918 45.2383 14.4844H45.2499H45.2383C45.2389 14.4918 45.2389 14.4992 45.2383 14.5065V14.5065Z"
        fill="#1F414A" />
    <path
        d="M53.1912 32.3951C53.1667 32.2785 53.1434 32.1619 53.1165 32.0452C53.0897 31.9286 53.0477 31.784 53.0127 31.6533C52.9836 31.6627 52.9626 31.6615 52.9579 31.6708C52.0615 33.1685 51.1675 34.6669 50.2757 36.1661C50.2454 36.2185 50.2139 36.2699 50.1836 36.3212C50.1836 36.3305 50.1836 36.3492 50.1918 36.3772C50.2361 36.3398 50.2781 36.3072 50.3165 36.2734C50.7095 35.9293 51.1014 35.584 51.4955 35.2423L51.5492 35.1956C51.642 35.1151 51.7209 35.0197 51.7824 34.9134C52.1859 34.2322 52.5988 33.5534 52.9976 32.8722C53.0711 32.7474 53.1422 32.6203 53.2157 32.4943L53.1912 32.3951Z"
        fill="white" />
    <path
        d="M52.8701 31.0768C52.8071 30.8295 52.7441 30.581 52.6707 30.2871C52.6007 30.3979 52.554 30.4621 52.5202 30.5274L49.1383 36.2042C48.7395 36.8729 48.341 37.5416 47.943 38.2103C47.943 38.2208 47.9301 38.2313 47.9243 38.243C47.8998 38.2827 47.8427 38.3212 47.8882 38.39C47.9185 38.3666 47.9511 38.3468 47.9779 38.3223L49.1791 37.2726L49.2619 37.2014C49.335 37.1339 49.3968 37.0552 49.445 36.9681C50.5622 35.0949 51.679 33.2221 52.7954 31.3497C52.8316 31.2914 52.8631 31.233 52.8969 31.1677C52.8852 31.1362 52.8771 31.1059 52.8701 31.0768Z"
        fill="#F7FBFF" />
    <path
        d="M25.2576 52.4141C25.1211 52.6473 24.9894 52.8736 24.8599 53.0987C24.8156 53.1769 24.7725 53.2562 24.7305 53.332L24.7888 53.2305L25.2576 52.4141Z"
        fill="#1F414A" />
    <path
        d="M30.0039 53.0793C30.0454 53.0367 30.0811 52.9889 30.11 52.937C30.2815 52.6361 30.4599 52.3375 30.6278 52.0377C30.6535 51.9922 30.6756 51.9456 30.7118 51.8721H30.7001L30.1532 52.8192L30.0039 53.0793Z"
        fill="#1F414A" />
    <path
        d="M26.2109 55.8537C26.2419 55.8137 26.2699 55.7716 26.2949 55.7277C26.5678 55.2472 26.8465 54.7701 27.1229 54.2908C27.5062 53.6267 27.8899 52.9619 28.2739 52.2962C28.3063 52.2571 28.3298 52.2113 28.3427 52.1621L26.3287 55.6484L26.2109 55.8537Z"
        fill="#1F414A" />
    <path
        d="M29.5356 52.0059L28.2528 54.2348L28.1094 54.4844C28.144 54.4457 28.1744 54.4035 28.2003 54.3585C28.6248 53.619 29.0524 52.8803 29.4831 52.1423C29.4866 52.1038 29.503 52.0642 29.5356 52.0059Z"
        fill="#1F414A" />
    <path
        d="M25.1328 55.8252L25.1596 55.7867C25.2902 55.5616 25.4197 55.3342 25.5503 55.109C26.0728 54.2055 26.5944 53.3012 27.1153 52.396C27.1356 52.3668 27.1529 52.3356 27.1666 52.3027L25.2005 55.7074L25.1328 55.8252Z"
        fill="#1F414A" />
    <path
        d="M54.0287 34.3555L53.8351 34.5223L48.354 39.3254C47.1878 40.3433 46.0263 41.3619 44.8695 42.3813C44.8077 42.435 44.7319 42.4782 44.6992 42.5598C45.1074 42.8864 52.3575 48.1211 52.5465 48.2226L60.9768 40.6808C61.0072 40.6516 61.036 40.6208 61.0631 40.5886L54.1103 34.4126C54.0841 34.3921 54.0569 34.3731 54.0287 34.3555Z"
        fill="white" />
    <path
        d="M50.602 30.2334C50.4563 30.0573 43.6913 23.4999 43.5431 23.3926C43.4953 23.4719 43.4464 23.5489 43.3997 23.6259C42.4341 25.2518 41.4689 26.8773 40.5041 28.5025C40.4174 28.6493 40.3485 28.8059 40.2988 28.9691C39.7834 30.602 39.266 32.2349 38.7466 33.8679C38.6778 34.0871 38.6102 34.3064 38.5391 34.5362L44.6032 40.3681C44.8423 40.0135 50.5274 30.4002 50.602 30.2334Z"
        fill="white" />
    <path
        d="M38.4856 50.5596L44.0752 41.274C44.052 41.2423 44.0271 41.2119 44.0005 41.183L37.8862 35.2939C37.8128 35.3313 37.751 35.3604 37.6903 35.3931C36.9405 35.8002 36.1929 36.2096 35.4408 36.612C35.3116 36.6778 35.2049 36.7805 35.134 36.9071C33.8124 39.1807 32.4907 41.4528 31.169 43.7234C31.1352 43.7817 31.1037 43.84 31.0664 43.9112C31.1317 43.9718 31.1912 44.0278 31.253 44.0873L35.1247 47.5806C36.1859 48.5386 37.2483 49.4962 38.3119 50.4534C38.3585 50.4966 38.3994 50.5666 38.4856 50.5596Z"
        fill="white" />
    <path
        d="M34.1371 36.1797L34.5254 35.9685L35.077 35.6676L35.4199 35.481L35.8863 35.2244L36.1627 35.0728C36.6875 34.7847 37.021 34.5992 37.0502 34.5782C37.0434 34.5646 37.0352 34.5517 37.0257 34.5397C36.9989 34.5129 36.9697 34.4872 36.9406 34.4627L28.9919 27.6861C28.9855 27.6818 28.9784 27.6786 28.9709 27.6767L28.9243 27.6709L20.6094 32.712C20.733 32.873 27.7009 39.3697 27.9097 39.5365C27.9762 39.5108 29.2566 38.8227 30.8391 37.9666L31.2403 37.7496L33.3254 36.6182L33.7359 36.3954L34.1371 36.1797Z"
        fill="white" />
    <path
        d="M44.2484 22.6467L51.1079 29.2951C51.1135 29.3 51.1203 29.3032 51.1277 29.3044C51.1426 29.3042 51.1575 29.3023 51.172 29.2986C52.8047 26.4853 54.4373 23.6654 56.07 20.8388C56.0615 20.8212 56.0513 20.8044 56.0396 20.7887L48.9423 14.5707C48.8676 14.5054 48.7895 14.4424 48.709 14.3782C48.7028 14.3738 48.6956 14.371 48.688 14.3701C48.6776 14.3688 48.667 14.3688 48.6565 14.3701L44.0781 22.4753C44.1411 22.5383 44.1936 22.5942 44.2484 22.6467Z"
        fill="white" />
    <path
        d="M26.9597 40.0791C26.9429 40.0507 26.9238 40.0238 26.9025 39.9986L19.7049 33.2744C19.6197 33.3222 19.5451 33.3619 19.4716 33.405C17.6135 34.5217 15.7558 35.6383 13.8985 36.7549C13.0821 37.2389 12.2996 37.7638 11.4331 38.1546C11.3993 38.1745 11.368 38.1984 11.3398 38.2257C11.3958 38.277 11.4401 38.319 11.4856 38.3587L14.9398 41.3796L18.576 44.5475C18.6203 44.586 18.6716 44.6175 18.7101 44.6455C18.9329 44.5172 19.1381 44.3959 19.3468 44.2816L26.7777 40.1876C26.8349 40.1549 26.892 40.1187 26.9597 40.0791Z"
        fill="#E4804B" />
    <path
        d="M44.0549 43.3476C44.0476 43.3464 44.0401 43.3464 44.0328 43.3476H44.0036L43.887 43.54L40.9494 48.419C40.3196 49.4688 39.6864 50.5115 39.0613 51.5612C39.0109 51.6654 38.93 51.7517 38.8294 51.8088C38.7288 51.8658 38.6133 51.891 38.498 51.8808C38.2648 51.868 38.0374 51.8738 37.8065 51.8738C37.7715 51.8738 37.7284 51.8575 37.6992 51.9205C39.2153 53.3715 40.7406 54.8236 42.28 56.2933C42.3593 56.2338 42.4211 56.1895 42.4817 56.1416L48.3476 51.5507C49.4081 50.7218 50.4674 49.8922 51.5255 49.0617C51.5884 49.0127 51.6689 48.9765 51.7027 48.8879L51.5313 48.7596L44.0549 43.3476Z"
        fill="white" />
    <path
        d="M37.7165 33.7521C37.7227 33.7474 37.7279 33.7414 37.7316 33.7346C37.742 33.7142 37.7509 33.6932 37.7585 33.6716L40.1503 26.1321C40.152 26.1248 40.152 26.1172 40.1503 26.11L40.1363 26.0691L33.2209 19.2236C33.0949 19.4243 29.7072 26.7246 29.6523 26.9019C29.7806 27.0477 37.5451 33.6669 37.699 33.7649L37.7165 33.7521Z"
        fill="#EEAA76" />
    <path
        d="M35.4283 9.80921C35.4313 9.82346 35.4352 9.83748 35.44 9.8512L42.7531 16.1392C42.7744 16.1539 42.7975 16.1656 42.8219 16.1742C42.8441 16.1147 42.8674 16.0575 42.8872 16.0015C43.1205 15.311 43.3564 14.6205 43.5951 13.93L45.103 9.49779C45.1425 9.42685 45.1576 9.3449 45.1461 9.26451L37.9753 2.18457C37.9611 2.19383 37.9474 2.20396 37.9345 2.2149C37.9253 2.22662 37.9178 2.23957 37.9123 2.25339C37.0835 4.76344 36.2552 7.27311 35.4272 9.78238C35.425 9.79125 35.4254 9.80056 35.4283 9.80921V9.80921Z"
        fill="white" />
    <path
        d="M35.1425 10.9688C35.1262 11.0306 35.1063 11.0959 35.0923 11.1612C34.9625 11.7701 34.8331 12.3785 34.704 12.9866C34.3441 14.6701 33.9829 16.3528 33.6206 18.0347C33.6125 18.088 33.6074 18.1418 33.6055 18.1957C35.8772 20.4421 38.1474 22.6862 40.416 24.928C40.4253 24.9373 40.444 24.935 40.4696 24.942C40.4906 24.8709 40.5116 24.7997 40.5314 24.7274C40.6309 24.3487 40.7304 23.9696 40.83 23.5902C41.3742 21.5257 41.9157 19.4604 42.4544 17.3943C42.4647 17.3396 42.4721 17.2843 42.4766 17.2287L35.1985 10.9757C35.1891 10.9676 35.1693 10.9711 35.1425 10.9688Z"
        fill="white" />
    <path
        d="M14.4089 28.6569C13.8095 30.2899 13.2112 31.9189 12.6141 33.5441L11.4001 36.8519C11.3674 36.916 11.3495 36.9865 11.3477 37.0584C11.5248 36.9904 11.6953 36.9064 11.8573 36.8076C14.2977 35.3395 16.7397 33.8718 19.1832 32.4045C19.3079 32.3315 19.4032 32.2172 19.4526 32.0814C20.2635 30.0978 21.0759 28.1149 21.8899 26.1329C22.1613 25.4727 22.4334 24.8118 22.7063 24.15C22.7308 24.0905 22.7844 24.0334 22.7541 23.9482C22.6829 23.9856 22.6153 24.0182 22.55 24.0544L19.3687 25.7853C17.8052 26.6406 16.241 27.4929 14.6759 28.342C14.4462 28.4668 14.5045 28.3968 14.4089 28.6569Z"
        fill="white" />
    <path
        d="M16.9094 20.0566C16.5432 21.3175 16.1829 22.5795 15.8202 23.8415C15.5302 24.8524 15.2406 25.8633 14.9514 26.8741C14.9374 26.922 14.9316 26.9733 14.9141 27.0643C17.7502 25.5246 20.5479 23.9897 23.363 22.4652C24.0581 19.9085 24.7535 17.3475 25.4493 14.7822C25.4523 14.7563 25.4523 14.7301 25.4493 14.7041C25.3732 14.7174 25.3019 14.7509 25.2429 14.8009C24.481 15.2628 23.7199 15.7259 22.9595 16.1901L17.1555 19.7242C16.9234 19.8712 16.984 19.7954 16.9094 20.0566Z"
        fill="white" />
    <path
        d="M26.7243 13.9384C26.0083 16.5713 25.2942 19.1972 24.582 21.8161C24.582 21.8278 24.589 21.8441 24.596 21.8721C24.652 21.8499 24.7126 21.8324 24.7605 21.8068C27.3261 20.5626 29.8885 19.3185 32.4479 18.0743C32.5001 18.0532 32.5458 18.0186 32.5804 17.9742C32.615 17.9298 32.6373 17.877 32.645 17.8212C32.9381 16.4309 33.2343 15.0414 33.5336 13.6526C33.7237 12.7661 33.9161 11.8809 34.1051 10.9944C34.1156 10.9477 34.1447 10.8941 34.0876 10.8428L26.7243 13.9384Z"
        fill="white" />
    <path
        d="M28.4533 26.7897C28.559 26.7291 28.643 26.6369 28.6936 26.5261C29.7563 24.2315 30.8207 21.9376 31.8866 19.6445C31.911 19.5908 31.932 19.5348 31.9775 19.4229C31.8609 19.4788 31.7874 19.5092 31.7198 19.5395L24.3834 23.1016C24.135 23.2183 24.1909 23.1564 24.0836 23.4177L22.2177 27.9806C21.7785 29.0537 21.3388 30.1271 20.8988 31.201C20.8778 31.2523 20.8277 31.3025 20.865 31.3783C20.921 31.3468 20.9746 31.32 21.0259 31.2885C23.5006 29.7908 25.9763 28.2912 28.4533 26.7897Z"
        fill="white" />
    <path
        d="M25.6037 51.3643L27.7157 51.1614L30.0317 50.9281C30.1309 50.9219 30.2289 50.9031 30.3233 50.8721C28.2125 48.7454 26.1172 46.6331 24.0375 44.5352H23.9921L18.9775 45.7237C18.9401 45.7324 18.9034 45.7441 18.8679 45.7587C18.5576 45.9485 18.2575 46.1545 17.9688 46.3757C18.0247 46.427 18.0854 46.4783 18.1367 46.5262C18.7649 47.0565 19.3938 47.5868 20.0236 48.1171C21.3165 49.2057 22.609 50.2944 23.9011 51.383C23.9445 51.4253 23.997 51.4572 24.0546 51.4762C24.1122 51.4952 24.1734 51.5008 24.2335 51.4926C24.6859 51.4506 25.1454 51.4086 25.6037 51.3643Z"
        fill="white" />
    <path
        d="M27.1372 12.6643C27.353 12.6001 34.2591 9.69698 34.4305 9.59667C34.4492 9.54535 34.4702 9.48819 34.49 9.42987C35.2441 7.14454 35.9987 4.8596 36.7536 2.57505C36.7781 2.50273 36.7897 2.42692 36.8072 2.35227L36.7909 2.33594C36.7194 2.36187 36.6494 2.39145 36.581 2.42458L29.7273 6.08935C29.4836 6.21999 29.241 6.35412 28.9961 6.48126C28.9571 6.49762 28.9229 6.52367 28.8968 6.55694C28.8707 6.59021 28.8535 6.6296 28.8469 6.67138C28.8399 6.7087 28.8247 6.74486 28.8142 6.78219C28.4923 7.88092 28.1709 8.98004 27.8498 10.0795L27.1396 12.515C27.1256 12.5639 27.0894 12.6141 27.1372 12.6643Z"
        fill="#E4804B" />
    <path
        d="M6.99194 32.0613C7.06541 32.0216 7.14237 31.9878 7.21235 31.9446C8.05122 31.4003 8.8897 30.856 9.72779 30.3117L12.0462 28.8094C12.5231 28.4991 12.9978 28.1854 13.4771 27.8763C13.5346 27.8449 13.585 27.802 13.6252 27.7502C13.6653 27.6984 13.6943 27.6389 13.7103 27.5754C13.7523 27.4039 13.8083 27.2359 13.8561 27.0657L15.3499 21.8578C15.4619 21.469 15.5735 21.0771 15.6846 20.682C15.6888 20.6413 15.6888 20.6003 15.6846 20.5596C15.6077 20.5957 15.5517 20.6179 15.4992 20.647C15.0327 20.8974 14.5663 21.149 14.0998 21.4017L11.2252 22.9693C10.4835 23.3729 9.74062 23.7776 8.99543 24.1765C8.94622 24.1975 8.90306 24.2305 8.86985 24.2725C8.83665 24.3145 8.81447 24.3641 8.80534 24.4168C8.80534 24.4471 8.79252 24.4774 8.78552 24.5078C8.3968 26.1057 8.00807 27.7037 7.61934 29.3016C7.41876 30.1309 7.22167 30.9614 7.02226 31.7907L7.00476 31.8572C6.98298 31.9229 6.97856 31.9933 6.99194 32.0613Z"
        fill="#1696B4" />
    <path
        d="M5.51286 39.9046L9.82773 37.8109C10.061 37.6943 10.0061 37.7619 10.1006 37.5041C10.2289 37.1573 10.3568 36.8113 10.4843 36.4661C11.3208 34.1885 12.1566 31.9102 12.9916 29.6311C13.034 29.5556 13.0561 29.4704 13.0557 29.3838C12.982 29.4063 12.9134 29.4431 12.854 29.4923C10.817 30.8142 8.77894 32.1341 6.73968 33.4521C6.62306 33.5243 6.53145 33.6306 6.47729 33.7566C5.93307 34.9774 5.38652 36.197 4.83763 37.4155C4.33384 38.536 3.83123 39.6573 3.32977 40.7793C3.28853 40.8408 3.26622 40.913 3.26562 40.987C3.34493 40.9531 3.40673 40.9286 3.4662 40.8995L5.51286 39.9046Z"
        fill="white" />
    <path
        d="M36.9551 50.5848L32.2811 46.3684L30.365 44.6374C30.3288 44.5987 30.2851 44.5676 30.2366 44.5459C30.1882 44.5243 30.1359 44.5126 30.0828 44.5115C28.5773 44.5056 27.0706 44.494 25.565 44.4847C25.53 44.4847 25.4881 44.4672 25.4414 44.5301L26.9878 46.0896L28.5469 47.6607L30.1061 49.2318C30.6251 49.7555 31.144 50.2816 31.6548 50.7948L37.2397 50.8589C37.1505 50.7618 37.0555 50.6703 36.9551 50.5848V50.5848Z"
        fill="white" />
    <path
        d="M15.9769 19.2512C16.0925 19.1935 16.1826 19.095 16.23 18.9748C16.7462 17.7501 17.2659 16.5277 17.7891 15.3077C18.0142 14.7782 18.2405 14.2486 18.4889 13.6689C18.3956 13.7063 18.3466 13.7214 18.2999 13.7436C16.3804 14.6767 14.4605 15.6071 12.5402 16.5347C12.4298 16.5862 12.3426 16.6768 12.2953 16.789C11.8366 17.7781 11.3759 18.766 10.9134 19.7528C10.4881 20.6641 10.0628 21.5758 9.63754 22.488C9.59277 22.5525 9.56802 22.6287 9.56641 22.7072C9.64517 22.691 9.71978 22.6589 9.78565 22.6128C11.8482 21.4915 13.912 20.371 15.9769 19.2512Z"
        fill="white" />
    <path
        d="M14.3594 48.7414C14.4212 48.7985 14.469 48.8452 14.5203 48.8883C15.6087 49.7973 16.6925 50.7063 17.7716 51.6153C17.8138 51.6594 17.8657 51.693 17.9233 51.7132C17.9808 51.7335 18.0423 51.7399 18.1028 51.732H18.1261L21.5827 51.6153C21.8894 51.6048 22.1949 51.5897 22.5343 51.5745C22.3874 51.4147 17.2375 47.0735 17.0532 46.9521L14.3594 48.7414Z"
        fill="white" />
    <path
        d="M9.53054 43.9931L12.9568 44.7116L16.3585 45.4278C16.6221 45.4838 16.8845 45.5363 17.148 45.5911C17.1769 45.601 17.2076 45.6046 17.238 45.6016C17.2684 45.5985 17.2978 45.589 17.3241 45.5736L17.8267 45.2377C17.7386 45.1147 17.6104 45.0264 17.4641 44.9881C16.881 44.8714 16.2979 44.7443 15.7066 44.6206L12.0332 43.8497L8.62907 43.137L5.24714 42.4267L3.51187 42.0651C3.46839 42.0521 3.4225 42.0493 3.37777 42.0569C3.29093 42.0799 3.21092 42.1236 3.14453 42.1841C3.18302 42.2202 3.21334 42.2517 3.24716 42.2785C3.42558 42.4243 3.60867 42.5655 3.78476 42.7136C3.86709 42.7825 3.96528 42.8298 4.07047 42.8512C4.75463 42.9928 5.4384 43.1355 6.12178 43.2793C7.26075 43.5165 8.39701 43.7544 9.53054 43.9931Z"
        fill="#F6FBFC" />
    <path
        d="M4.69686 41.409C4.46363 41.5327 4.21407 41.6423 3.97267 41.7589C3.94402 41.7792 3.9178 41.8027 3.89453 41.8289L5.03739 42.0727L8.66538 42.832L12.3155 43.5995L15.6974 44.3086L16.8905 44.5617C16.9203 44.5693 16.9507 44.5739 16.9814 44.5757C17.0059 44.5757 17.0421 44.6061 17.0549 44.5419C16.8053 44.3238 16.5476 44.1057 16.2992 43.8783C16.1925 43.7794 16.0598 43.7131 15.9167 43.687C15.0071 43.5003 14.0986 43.3079 13.1902 43.1166L9.54002 42.3503L6.15809 41.64C5.76742 41.5583 5.37792 41.4732 4.99191 41.3915C4.8948 41.3605 4.78963 41.3667 4.69686 41.409V41.409Z"
        fill="#F6FBFC" />
    <path
        d="M11.5661 45.3994L15.2384 46.1704C15.4938 46.224 15.7503 46.2718 16.0045 46.3313C16.0487 46.3432 16.095 46.3446 16.1398 46.3352C16.1846 46.3259 16.2265 46.3062 16.2623 46.2777C16.3672 46.2007 16.4803 46.133 16.5876 46.0595C16.6928 45.9977 16.791 45.9246 16.8803 45.8414L4.58414 43.2754C4.57481 43.2754 4.56198 43.2871 4.53516 43.3022C4.55572 43.3244 4.57753 43.3455 4.60047 43.3652C4.89318 43.5985 5.18355 43.8318 5.48093 44.072C5.54102 44.1196 5.61192 44.1517 5.68734 44.1653C6.36373 44.3038 7.03973 44.4449 7.71533 44.5887L11.5661 45.3994Z"
        fill="#F6FBFC" />
    <path
        d="M6.136 40.7112C5.86194 40.8465 5.58673 40.9806 5.26953 41.1346C5.34067 41.1568 5.36982 41.1684 5.39898 41.1743C8.78557 41.8873 12.1718 42.5988 15.5576 43.3087C15.5648 43.3111 15.5725 43.3111 15.5797 43.3087C15.5797 43.3087 15.5867 43.3017 15.5984 43.2901C15.5552 43.2481 15.5144 43.2038 15.4701 43.1641C15.245 42.9658 15.0153 42.7722 14.7949 42.5704C14.71 42.493 14.6055 42.4401 14.4929 42.4176L11.1109 41.7178L7.48528 40.955L6.35874 40.7217C6.2878 40.6932 6.20931 40.6895 6.136 40.7112Z"
        fill="#F6FBFC" />
    <path
        d="M21.0496 16.0855C21.0309 16.1135 20.9925 16.1426 21.0496 16.1835C21.3995 15.9724 21.74 15.7577 22.091 15.5513C22.2099 15.4813 22.3106 15.3842 22.3849 15.2679C24.0642 12.7485 25.7443 10.2303 27.4251 7.7132C27.4683 7.64905 27.5067 7.58374 27.5476 7.51958C27.5394 7.50909 27.5301 7.49976 27.5207 7.48926C27.4706 7.52192 27.4204 7.55341 27.3715 7.5884C27.0216 7.83801 26.6718 8.09111 26.3219 8.33722C26.1962 8.42466 26.0885 8.53555 26.0047 8.66381C24.4327 11.0238 22.8595 13.3826 21.2852 15.7402C21.2024 15.8557 21.1242 15.97 21.0496 16.0855Z"
        fill="#F6FBFC" />
    <path
        d="M19.0547 17.367C19.1048 17.3599 19.1525 17.3407 19.1935 17.311C19.5153 17.1162 19.836 16.9179 20.1602 16.7278C20.2786 16.6575 20.3788 16.5604 20.4529 16.4444C21.5414 14.8068 22.6333 13.17 23.7287 11.5339C24.2403 10.7664 24.7519 9.99897 25.2634 9.23149C25.3155 9.17748 25.3483 9.10777 25.3567 9.0332C25.2751 9.08919 25.2121 9.13118 25.1515 9.17433C24.8016 9.42044 24.4658 9.67005 24.1183 9.91149C23.9928 9.99903 23.8858 10.1104 23.8034 10.2392C22.2625 12.5549 20.718 14.8713 19.1701 17.1885C19.1375 17.2329 19.106 17.2854 19.0547 17.367Z"
        fill="#F5F9FA" />
    <path
        d="M13.6572 46.8149C14.07 46.9012 14.484 46.9852 14.8957 47.0738C14.9354 47.0845 14.977 47.086 15.0174 47.0784C15.0578 47.0707 15.0959 47.054 15.1289 47.0295C15.305 46.9059 15.4869 46.7962 15.6654 46.6714C15.6957 46.6516 15.7353 46.6329 15.7073 46.5746L6.18663 44.5859C6.18663 44.5859 6.1773 44.5918 6.16797 44.5976C6.17696 44.6177 6.18918 44.6362 6.20413 44.6524C6.5155 44.9032 6.8257 45.1551 7.13707 45.4012C7.19891 45.4457 7.26977 45.476 7.34464 45.4899C8.31257 45.6952 9.28089 45.8985 10.2496 46.0999L13.6572 46.8149Z"
        fill="#F6FBFC" />
    <path
        d="M18.1419 17.0445C17.9857 17.4037 17.8341 17.7653 17.6755 18.1257C17.6626 18.156 17.6265 18.1899 17.6836 18.2272C17.8772 18.1105 18.072 17.9939 18.2667 17.8773C18.3526 17.8259 18.4253 17.7552 18.479 17.6708C20.009 15.3754 21.5398 13.0815 23.0714 10.7892C23.0959 10.7518 23.1157 10.7122 23.1378 10.6725L23.1087 10.6445C23.0823 10.6575 23.0566 10.6719 23.0317 10.6877C22.6306 10.9735 22.2317 11.2604 21.8306 11.545C21.7563 11.5996 21.6933 11.6681 21.6451 11.7468C20.5147 13.4403 19.3843 15.1343 18.2539 16.8287C18.2102 16.8971 18.1727 16.9693 18.1419 17.0445V17.0445Z"
        fill="#F6F9FA" />
    <path
        d="M7.54861 40.0281L6.70312 40.4387C6.74044 40.4679 6.75211 40.4818 6.76494 40.4853L14.0851 42.025C14.0923 42.0267 14.0999 42.0267 14.1072 42.025C14.1072 42.025 14.1154 42.0168 14.1259 42.0051C14.1077 41.9823 14.0882 41.9605 14.0676 41.9398L13.2711 41.24C13.2209 41.1919 13.1568 41.1609 13.088 41.1514C13.0273 41.1444 12.9714 41.1257 12.9084 41.1129L9.48448 40.3932L7.72937 40.0211C7.6703 40.0012 7.60596 40.0037 7.54861 40.0281V40.0281Z"
        fill="#F6F9FA" />
    <path
        d="M27.2195 8.60913L27.1916 8.59863L22.9023 15.0266C22.9424 15.0155 22.9814 15.001 23.019 14.9834C23.3805 14.7653 23.7397 14.5437 24.1023 14.3279C24.1794 14.2773 24.244 14.2099 24.2913 14.1308C25.0493 12.9924 25.8081 11.8548 26.5677 10.7179C26.628 10.6292 26.674 10.5316 26.7041 10.4287C26.8627 9.87465 27.0283 9.32296 27.1892 8.77009C27.2044 8.7176 27.2044 8.66278 27.2195 8.60913Z"
        fill="#F6F9FA" />
    <path
        d="M7.92223 45.9139C7.89352 45.9115 7.86466 45.9115 7.83594 45.9139C7.83594 45.9873 7.89891 46.0072 7.93856 46.0387C8.18229 46.2369 8.43301 46.4271 8.67208 46.6324C8.7953 46.7351 8.94325 46.8039 9.10124 46.8318C10.2495 47.0713 11.3978 47.312 12.5461 47.5538L13.9082 47.8372L14.6394 47.3508C14.4225 47.275 8.46684 46.0048 7.92223 45.9139Z"
        fill="#F6FBFC" />
    <path
        d="M8.89445 39.3701C8.66122 39.4868 8.42798 39.6034 8.19474 39.7201C8.17025 39.7317 8.14693 39.7504 8.07812 39.7947L12.6076 40.7418C12.6181 40.7418 12.6321 40.7325 12.6566 40.7231C12.6381 40.699 12.6183 40.676 12.5971 40.6543C12.337 40.4269 12.0758 40.2006 11.8169 39.9708C11.7551 39.9136 11.6775 39.8762 11.5942 39.8635C11.488 39.8484 11.3842 39.8204 11.2793 39.7982C10.5656 39.6489 9.85188 39.5019 9.14051 39.3491C9.05867 39.326 8.97119 39.3335 8.89445 39.3701V39.3701Z"
        fill="#F5F9FA" />
    <path
        d="M30.1359 43.5011C30.2117 43.3705 30.2828 43.2445 30.3539 43.1209C30.3294 43.0766 30.3131 43.0416 30.2933 43.0101C29.7374 42.1268 29.1804 41.2446 28.6222 40.3636C28.6172 40.3574 28.6108 40.3526 28.6035 40.3496C28.5935 40.3471 28.5834 40.3451 28.5732 40.3438C28.4927 40.3857 28.4029 40.4289 28.3166 40.4791C28.2161 40.523 28.1225 40.5816 28.0391 40.6528C28.6385 41.6069 29.236 42.5564 29.8315 43.5011H30.1359Z"
        fill="#F6F9FA" />
    <path
        d="M9.4375 47.2041C9.459 47.2361 9.48278 47.2665 9.50864 47.2951C9.82001 47.5459 10.1314 47.7943 10.4416 48.0451C10.5033 48.0904 10.5755 48.1193 10.6515 48.129C10.9897 48.1979 11.3267 48.2725 11.6637 48.3437L12.7903 48.5769C13.0305 48.4183 13.2696 48.2702 13.497 48.1011C13.483 48.0812 13.476 48.0602 13.4655 48.0579L9.4375 47.2041Z"
        fill="#F5F9FA" />
    <path
        d="M28.7107 43.4872L28.7456 43.5046H29.3964C29.4092 43.5046 29.4209 43.493 29.4582 43.4755C28.8961 42.5797 28.3344 41.6878 27.773 40.7998C27.5683 40.8735 27.3781 40.9825 27.2109 41.1217C27.2284 41.1532 27.2459 41.1859 27.2669 41.2185C27.7412 41.9697 28.2166 42.7208 28.6932 43.472C28.6975 43.4785 28.7036 43.4837 28.7107 43.4872V43.4872Z"
        fill="#F5F9FA" />
    <path
        d="M30.8999 42.1932C30.8801 42.1559 30.8672 42.129 30.8509 42.1034C30.4023 41.3896 29.9533 40.6761 29.504 39.9631C29.4814 39.9327 29.4565 39.9042 29.4293 39.8779C29.2396 39.972 29.0558 40.0775 28.8789 40.194L30.5337 42.8219L30.8999 42.1932Z"
        fill="#F5F9FA" />
    <path
        d="M44.3819 14.7398C44.3603 14.7846 44.3517 14.8346 44.357 14.8841C44.3624 14.9336 44.3815 14.9806 44.4123 15.0197C44.8659 15.7335 45.3149 16.4497 45.7662 17.1635C45.7958 17.2045 45.8281 17.2435 45.863 17.2802C45.9796 17.0562 46.1149 16.8603 46.2128 16.6422L44.8764 14.5205L44.4531 14.5637C44.4324 14.6235 44.4086 14.6823 44.3819 14.7398V14.7398Z"
        fill="#F6F9FA" />
    <path
        d="M45.3591 18.1593C45.4664 17.9739 45.5702 17.7861 45.6739 17.6018C45.6616 17.5705 45.6472 17.5401 45.6308 17.5108C45.1783 16.79 44.7247 16.0695 44.2699 15.3495C44.2482 15.3247 44.2235 15.3028 44.1964 15.2842L43.9375 16.0447L45.2996 18.2083C45.3264 18.1885 45.3498 18.178 45.3591 18.1593Z"
        fill="#F5F9FA" />
    <path
        d="M28.27 43.4968C28.277 43.4966 28.2837 43.4936 28.2886 43.4887C28.2886 43.4887 28.2968 43.4758 28.3073 43.4572C28.2907 43.4174 28.272 43.3784 28.2513 43.3405L26.9988 41.3519C26.9732 41.3154 26.9452 41.2807 26.9149 41.248C26.8146 41.3017 26.726 41.346 26.6397 41.3962C26.5405 41.4415 26.4475 41.4995 26.3633 41.5688L27.5761 43.4933L28.27 43.4968Z"
        fill="#F5F9FA" />
    <path
        d="M43.8058 16.4463C43.702 16.7041 43.6227 16.9583 43.5469 17.1939C43.5509 17.2087 43.556 17.2231 43.562 17.2371C43.9508 17.8553 44.3395 18.4731 44.7282 19.0905C44.7422 19.1126 44.7702 19.1255 44.7994 19.15L45.1492 18.5341L43.8664 16.5011C43.8481 16.4808 43.8278 16.4624 43.8058 16.4463V16.4463Z"
        fill="#F5F9FA" />
    <path
        d="M31.0882 41.8651C31.2142 41.6563 31.3331 41.4569 31.4462 41.2481C31.0614 40.6439 30.6847 40.049 30.3069 39.4542C30.3019 39.4484 30.2954 39.4439 30.2882 39.4414L30.2555 39.4297C30.0876 39.5195 29.9139 39.614 29.7109 39.7248C30.1588 40.4339 30.5902 41.1244 31.0241 41.8056C31.0431 41.8279 31.0646 41.8478 31.0882 41.8651V41.8651Z"
        fill="#F5F9FA" />
    <path
        d="M43.2188 18.4883L44.224 20.0722C44.2281 20.0787 44.2343 20.0836 44.2415 20.0862C44.2415 20.0862 44.2531 20.0862 44.2776 20.0769C44.3838 19.8891 44.4969 19.6897 44.6053 19.4937C44.5179 19.3024 43.5698 17.8013 43.4497 17.6602C43.3383 17.9254 43.2607 18.2036 43.2188 18.4883V18.4883Z"
        fill="#F5F9FA" />
    <path
        d="M26.0746 41.7129L25.5195 42.0196C25.8356 42.5235 26.1376 43.0017 26.4326 43.4706C26.684 43.5016 26.9382 43.5016 27.1895 43.4706C27.1685 43.4275 27.151 43.3878 27.1289 43.354C26.807 42.8408 26.4844 42.3283 26.1609 41.8167C26.1349 41.7799 26.106 41.7452 26.0746 41.7129V41.7129Z"
        fill="#F5F7F8" />
    <path
        d="M45.2397 14.5059C45.2378 14.5128 45.2378 14.52 45.2397 14.5269C45.602 15.1039 45.9651 15.6816 46.3289 16.2601C46.3406 16.2776 46.3511 16.2963 46.3721 16.3325C46.5072 16.1265 46.6306 15.9131 46.7417 15.6933L45.9254 14.3916C45.7575 14.4103 45.2828 14.4697 45.2514 14.4802H45.2397C45.2405 14.4888 45.2405 14.4974 45.2397 14.5059V14.5059Z"
        fill="#F5F9FA" />
    <path
        d="M31.6035 40.9176C31.6154 40.9167 31.6271 40.9144 31.6385 40.9106C31.7551 40.7287 31.8717 40.5304 31.9802 40.3275C31.9603 40.2901 31.944 40.2563 31.9242 40.2248C31.6653 39.8166 31.406 39.4087 31.1464 39.0013C31.1417 38.9951 31.1351 38.9906 31.1277 38.9884C31.116 38.9847 31.1038 38.9824 31.0915 38.9814C30.9062 39.0684 30.728 39.1698 30.5586 39.2847C30.9084 39.8306 31.2443 40.3683 31.586 40.9048C31.5901 40.911 31.5963 40.9156 31.6035 40.9176V40.9176Z"
        fill="#F5F9FA" />
    <path
        d="M43.0946 18.9141C43.0316 19.1567 42.978 19.3806 42.9139 19.5999C42.8989 19.6426 42.8948 19.6884 42.9017 19.7331C42.9086 19.7779 42.9264 19.8202 42.9535 19.8565C43.1867 20.2181 43.4118 20.5832 43.6416 20.9459C43.6676 20.9835 43.6957 21.0197 43.7255 21.0544C43.8503 20.8363 43.9588 20.6403 44.0824 20.4187C43.7745 19.9311 43.4725 19.4518 43.1681 18.9724C43.1464 18.9496 43.1217 18.93 43.0946 18.9141V18.9141Z"
        fill="#F5F7F8" />
    <path
        d="M25.9762 43.4839C26.0041 43.4791 26.0314 43.4717 26.0579 43.4617C25.8081 43.0203 25.5356 42.592 25.2416 42.1787C25.0597 42.2687 24.8826 42.368 24.7109 42.4761C24.8948 42.8298 25.1082 43.1673 25.3488 43.4851L25.9762 43.4839Z"
        fill="#F6F9FA" />
    <path
        d="M42.7614 20.1738C42.7008 20.4071 42.6518 20.6241 42.5865 20.8363C42.5681 20.886 42.5622 20.9394 42.5693 20.9919C42.5765 21.0444 42.5964 21.0943 42.6273 21.1373C42.7847 21.3705 42.9305 21.6155 43.0821 21.8546C43.1113 21.8989 43.1439 21.9409 43.1859 21.9981C43.3142 21.7846 43.432 21.5817 43.5358 21.3694C43.5194 21.3379 43.5078 21.3099 43.4914 21.2842C43.2753 20.9405 43.0592 20.5972 42.843 20.2543C42.8188 20.2246 42.7915 20.1976 42.7614 20.1738V20.1738Z"
        fill="#F5F7F8" />
    <path
        d="M32.1791 39.994L32.5289 39.3945L31.9785 38.5186C31.774 38.5906 31.5832 38.6966 31.4141 38.8323C31.6695 39.2977 32.0555 39.8867 32.1791 39.994Z"
        fill="#F5F7F8" />
    <path
        d="M24.8714 13.8066C24.8714 13.8066 24.8784 13.8171 24.8912 13.8323C24.9215 13.8171 24.9541 13.8019 24.9845 13.7833C25.241 13.6281 25.4941 13.4695 25.753 13.3167C25.7966 13.2923 25.8344 13.2589 25.864 13.2186C25.8935 13.1784 25.9141 13.1323 25.9244 13.0834C26.041 12.6472 26.1786 12.2145 26.3069 11.7806L26.2428 11.7246L24.9157 13.718L24.8795 13.7763C24.8731 13.785 24.8702 13.7958 24.8714 13.8066V13.8066Z"
        fill="#F0F2F2" />
    <path
        d="M42.4382 21.4453C42.3531 21.6996 42.2936 21.9585 42.2353 22.2151C42.2309 22.2604 42.2424 22.3058 42.268 22.3434C42.3846 22.5324 42.5012 22.7202 42.6388 22.9371C42.7769 22.7326 42.9012 22.519 43.0108 22.2979C42.8336 22.018 42.661 21.7474 42.4872 21.4756C42.4825 21.4651 42.4627 21.4605 42.4382 21.4453Z"
        fill="#F2F5F6" />
    <path
        d="M47.2787 14.7627C47.1715 14.5795 47.07 14.4128 46.9615 14.2588L46.2852 14.3754C46.4743 14.7275 46.6903 15.0644 46.9312 15.3832L47.2787 14.7627Z"
        fill="#F2F5F6" />
    <path
        d="M10.3362 38.6914C10.0459 38.7987 9.76922 38.9396 9.51172 39.1113C10.0505 39.2279 10.5811 39.3446 11.1117 39.4484C11.133 39.4494 11.1544 39.4467 11.1747 39.4402C10.9157 39.1686 10.6353 38.9182 10.3362 38.6914Z"
        fill="#F2F5F6" />
    <path
        d="M24.1863 43.4677H24.9408C24.7577 43.1656 24.591 42.9009 24.4137 42.6279C24.2236 42.7352 24.0382 42.8227 23.8633 42.9405C23.8992 43.0354 23.9487 43.1246 24.0102 43.2053C24.06 43.2984 24.119 43.3863 24.1863 43.4677Z"
        fill="#F5F9FA" />
    <path
        d="M33.069 38.4633C32.9902 38.3174 32.8968 38.1799 32.7903 38.0527C32.6004 38.1451 32.4172 38.2507 32.2422 38.3688C32.3926 38.6079 32.5302 38.8459 32.7087 39.0896L33.069 38.4633Z"
        fill="#F2F5F6" />
    <path
        d="M42.4659 23.2351C42.3631 23.0427 42.2424 22.8603 42.1055 22.6904C42.053 22.8852 42.0064 23.0532 41.9621 23.2235C41.8781 23.5466 41.8781 23.5477 42.0974 23.8463C42.2338 23.6457 42.3481 23.4427 42.4659 23.2351Z"
        fill="#F0F2F2" />
    <path
        d="M23.0273 43.3898C23.03 43.4166 23.0362 43.4429 23.046 43.4679C23.0892 43.5403 23.1346 43.6102 23.1918 43.7012L23.8402 43.5449C23.8309 43.5121 23.8188 43.4801 23.804 43.4493C23.7329 43.3326 23.6583 43.216 23.5778 43.0889L23.0273 43.3898Z"
        fill="#F0F2F2" />
    <path
        d="M22.0234 43.9617C22.5226 43.8754 22.6905 43.8311 22.8608 43.7413C22.8246 43.6841 22.7896 43.6246 22.7441 43.5488C22.6124 43.62 22.4969 43.6783 22.3861 43.7424C22.2588 43.8044 22.1374 43.8778 22.0234 43.9617V43.9617Z"
        fill="#F0F2F2" />
    <path
        d="M41.6133 24.6336C41.7291 24.4834 41.831 24.3229 41.9177 24.1542L41.7812 23.9326C41.709 24.1621 41.6528 24.3963 41.6133 24.6336Z"
        fill="#F0F2F2" />
    <path
        d="M33.2546 38.1449L33.5019 37.7168C33.3484 37.7445 33.2041 37.8098 33.082 37.9069C33.1211 37.9981 33.1801 38.0794 33.2546 38.1449V38.1449Z"
        fill="#F0F2F2" />
    <path
        d="M26.3394 11.582L26.2846 11.6672V11.6765L26.2461 11.7372L26.3102 11.7931C26.3423 11.7277 26.3525 11.6537 26.3394 11.582V11.582Z"
        fill="#3ABBC7" />
    <path
        d="M52.4177 29.2708C52.4146 29.2644 52.4097 29.2592 52.4037 29.2556C52.3926 29.2515 52.3813 29.248 52.3699 29.2451C52.3349 29.2988 52.2964 29.3536 52.2626 29.4119C52.0585 29.7618 51.8579 30.1187 51.6503 30.4687C50.7174 32.0487 49.7809 33.628 48.841 35.2065L46.0422 39.9245C46.02 39.9403 46.0035 39.9627 45.9949 39.9885C45.9863 40.0142 45.9861 40.0421 45.9943 40.068L46.0678 39.9957L46.322 39.7717C46.497 39.6178 46.6719 39.4638 46.848 39.3133C46.9648 39.2143 47.0638 39.0959 47.1407 38.9634C48.9063 35.9992 50.6731 33.0362 52.441 30.0744C52.4841 30.0021 52.5261 29.9298 52.5669 29.8598C52.5121 29.6569 52.4666 29.4644 52.4177 29.2708Z"
        fill="white" />
    <path
        d="M20.9314 12.1866C20.62 12.4106 20.3086 12.6357 19.9984 12.8573C19.9283 12.9037 19.8735 12.9699 19.841 13.0474C19.5495 13.7403 19.2564 14.4327 18.9617 15.1247L18.8789 15.3195L18.9057 15.3335L19.0223 15.1469L19.1635 14.9381L20.9605 12.2554C20.9697 12.2466 20.9779 12.2368 20.985 12.2263C20.992 12.2076 20.9955 12.1878 21.0014 12.168L20.9314 12.1866Z"
        fill="white" />
    <path
        d="M62.2699 40.3997C62.2477 40.311 62.2303 40.2201 62.2023 40.1326C61.4816 37.9102 60.7605 35.6891 60.039 33.469C60.0122 33.3886 59.9807 33.3093 59.9469 33.2358C59.9282 33.1938 59.9107 33.1518 59.8909 33.111C59.1679 31.618 58.4433 30.125 57.7171 28.6321C57.6984 28.5936 57.6821 28.5539 57.6658 28.5154C57.6182 28.4066 57.5765 28.2952 57.541 28.1818C57.0427 26.5349 56.5428 24.8884 56.0413 23.2422C56.0343 23.2212 56.0332 23.1967 56.0238 23.1757C55.9979 23.1245 55.987 23.067 55.9924 23.0098C55.9977 22.9526 56.0191 22.8982 56.0541 22.8526C56.1999 22.6194 56.3329 22.3744 56.4716 22.1353C56.6862 21.7621 56.9008 21.3888 57.1189 21.0179C57.1692 20.9449 57.2005 20.8604 57.2099 20.7722C57.2192 20.684 57.2064 20.5949 57.1725 20.5129C57.1548 20.4706 57.1309 20.4313 57.1014 20.3962C57.0654 20.3545 57.0265 20.3155 56.9848 20.2796C56.6431 19.9822 56.3014 19.6824 55.9608 19.3838L49.0116 13.307C48.9836 13.2813 48.9533 13.2568 48.9253 13.23C48.8511 13.1574 48.76 13.1044 48.6603 13.0759C48.5605 13.0474 48.4552 13.0442 48.3539 13.0667C47.913 13.132 47.4687 13.1833 47.0267 13.2323L45.6763 13.3979L44.8763 13.4936C44.868 13.4962 44.859 13.4962 44.8506 13.4936L44.8297 13.4866H44.8168C44.8343 13.4236 44.8495 13.3583 44.8705 13.2965L46.0833 9.74134C46.1276 9.60953 46.1708 9.4789 46.2162 9.34827C46.2511 9.25795 46.2587 9.15936 46.2379 9.06478C46.2172 8.97021 46.1691 8.88382 46.0996 8.8164C46.0576 8.77091 46.0122 8.72892 45.969 8.68576C43.5885 6.33589 41.209 3.98407 38.8308 1.63031L38.1579 0.96431C38.0892 0.874354 37.9946 0.807661 37.8867 0.773243C37.7789 0.738825 37.6631 0.738342 37.555 0.771857L28.4098 5.66017C28.2678 5.73616 28.1306 5.82109 27.9993 5.91444L19.4069 12.0554C19.2881 12.1403 19.1625 12.2152 19.0314 12.2794C16.6827 13.4201 14.3336 14.5597 11.9842 15.6981C11.9282 15.7249 11.8745 15.7552 11.8186 15.7797C11.6833 15.8394 11.5758 15.9482 11.5177 16.0841C11.3708 16.4049 11.2203 16.7245 11.071 17.0452C10.1093 19.1066 9.14724 21.1672 8.18475 23.227C8.01088 23.5953 7.87491 23.9802 7.77892 24.3759C7.33111 26.2281 6.88173 28.0796 6.43081 29.9302C6.18708 30.938 5.94685 31.9469 5.70312 32.9547C5.68145 33.0444 5.65138 33.1319 5.61332 33.2159C4.33285 36.0759 3.05005 38.9359 1.76492 41.7959C1.74276 41.8448 1.49786 42.2379 1.983 42.5633L4.68738 44.7153L11.3264 50.0398C11.3801 50.083 11.4431 50.1227 11.4885 50.1693C11.5786 50.2484 11.6926 50.2949 11.8123 50.3015C11.932 50.308 12.0504 50.2742 12.1486 50.2055C12.341 50.0655 12.5439 49.9407 12.7433 49.8089L13.3591 49.403C13.3964 49.3773 13.4349 49.3563 13.4757 49.3295C13.5503 49.3913 13.6227 49.4462 13.6926 49.508L17.2996 52.5289C17.3299 52.5534 17.3603 52.5767 17.3882 52.6024C17.4418 52.6523 17.5051 52.6908 17.574 52.7155C17.643 52.7401 17.7163 52.7505 17.7894 52.7458C18.0506 52.7353 18.3119 52.7342 18.5731 52.7248C19.1795 52.7039 19.7871 52.677 20.3935 52.656C21.0617 52.6339 21.7311 52.6152 22.3993 52.593C22.6524 52.5849 22.9066 52.5709 23.1597 52.5616C23.2518 52.5616 23.3428 52.5616 23.4477 52.5616C23.4643 52.6025 23.4779 52.6446 23.4885 52.6875C23.6331 53.5514 23.777 54.4157 23.92 55.2804C24.0448 56.0304 24.1731 56.7804 24.2944 57.5315C24.3255 57.7223 24.4286 57.8939 24.5824 58.0109C26.6901 59.7799 28.7962 61.552 30.9008 63.3273L32.7585 64.8937C32.8471 64.9672 32.9404 65.0337 33.0302 65.1072C33.0442 65.1177 33.239 65.281 33.4256 65.1387C33.7824 64.8377 34.1428 64.5391 34.4985 64.2359C37.1597 61.9645 39.8201 59.6936 42.4798 57.423C42.9311 57.0405 43.4127 56.6882 43.8792 56.3231L52.776 49.3575C52.8495 49.3015 52.9194 49.2409 52.9883 49.1802L61.9958 41.1228L62.0133 41.1077C62.0784 41.0537 62.1399 40.9957 62.1976 40.9339C62.2384 40.8732 62.376 40.7811 62.2699 40.3997ZM58.9008 33.6347C58.9912 33.6947 59.0631 33.7787 59.1084 33.8773C59.1312 33.9242 59.1511 33.9725 59.1679 34.0219C59.6682 35.5802 60.1754 37.1362 60.6781 38.6874C60.716 38.759 60.731 38.8404 60.7212 38.9207C60.6687 38.8799 60.6256 38.8496 60.5859 38.8146L56.846 35.5009C56.1051 34.843 55.3638 34.1852 54.6221 33.5274C54.5378 33.4613 54.4772 33.3696 54.4495 33.2661C54.1334 31.9831 53.8104 30.7001 53.4909 29.417C53.4804 29.3762 53.4722 29.3342 53.4629 29.2899V29.2806C53.5352 29.2491 53.5667 29.3016 53.604 29.3319C54.0767 29.7129 54.5482 30.0951 55.0186 30.4784L58.8483 33.588C58.8649 33.6045 58.8824 33.6201 58.9008 33.6347V33.6347ZM31.6541 50.7945C31.1434 50.2778 30.6244 49.7552 30.1055 49.2315L28.5463 47.6604L26.9871 46.0893L25.4407 44.5299C25.4543 44.5107 25.4734 44.4961 25.4955 44.488C25.5176 44.4799 25.5415 44.4786 25.5643 44.4844C27.0699 44.4937 28.5766 44.5054 30.0821 44.5112C30.1352 44.5123 30.1875 44.524 30.236 44.5456C30.2844 44.5673 30.3281 44.5984 30.3643 44.6372L32.2804 46.3681L36.9544 50.5845C37.0548 50.67 37.1498 50.7615 37.239 50.8586L31.6541 50.7945ZM31.6728 51.8361C31.6717 51.844 31.668 51.8514 31.6623 51.8571L30.7982 52.4986C30.776 52.5137 30.7515 52.5266 30.7165 52.5476C30.7421 52.4752 30.7725 52.4047 30.8075 52.3364C30.8966 52.1609 30.9983 51.9922 31.1119 51.8314C31.2518 51.8197 31.3953 51.7952 31.5399 51.7952C31.5788 51.7949 31.6178 51.7973 31.6565 51.8022C31.6629 51.813 31.6683 51.8244 31.6728 51.8361V51.8361ZM28.8005 53.9041L28.8833 53.7594L29.92 51.9585C30.1836 51.9095 30.4296 51.9014 30.7002 51.8734H30.7119C30.6757 51.9469 30.6536 51.99 30.6279 52.039C30.4553 52.3388 30.2781 52.6374 30.1101 52.9383C30.0812 52.9902 30.0455 53.038 30.004 53.0806C29.987 53.0984 29.9682 53.1144 29.948 53.1284C29.5877 53.3909 29.2308 53.658 28.8716 53.9216C28.8484 53.9374 28.8243 53.9518 28.7993 53.9647C28.7993 53.9367 28.7935 53.9169 28.8005 53.9041ZM28.1882 54.3578C28.1623 54.4028 28.1319 54.445 28.0973 54.4838C28.0758 54.5079 28.052 54.5298 28.0262 54.5491C27.6763 54.8068 27.3264 55.0693 26.9684 55.3282C26.945 55.3444 26.9205 55.3588 26.895 55.3714L26.867 55.3387L26.9556 55.1848C27.555 54.1467 28.1556 53.1066 28.7573 52.0647C29.0129 52.0297 29.2703 52.0099 29.5282 52.0052V52.0052C29.5002 52.0623 29.4839 52.1032 29.4617 52.1417C29.0388 52.8804 28.6143 53.6191 28.1882 54.3578ZM19.3416 44.2814C19.1328 44.398 18.9276 44.5147 18.7049 44.6453C18.6664 44.6173 18.6151 44.5858 18.5708 44.5473L14.9404 41.376L11.4862 38.355C11.4407 38.3154 11.3964 38.2734 11.3404 38.2221C11.3686 38.1947 11.3999 38.1708 11.4337 38.1509C12.3002 37.7637 13.0885 37.2388 13.899 36.7512C15.7587 35.637 17.6164 34.5203 19.4722 33.4014C19.5433 33.3582 19.618 33.3186 19.7054 33.2708L26.9031 39.995C26.9244 40.0201 26.9435 40.047 26.9603 40.0754C26.8926 40.1151 26.8355 40.1513 26.7748 40.1839L19.3416 44.2814ZM23.8407 43.5419L23.1923 43.6982C23.1352 43.6096 23.0897 43.5396 23.0466 43.4649C23.0368 43.4399 23.0305 43.4136 23.0279 43.3868L23.5783 43.0835C23.6588 43.2118 23.7334 43.3273 23.8046 43.4439C23.8195 43.4755 23.8316 43.5083 23.8407 43.5419ZM22.86 43.7414C22.6897 43.8312 22.5218 43.8755 22.0226 43.9618C22.1359 43.878 22.2565 43.8046 22.383 43.7425C22.4938 43.6784 22.6092 43.6201 22.741 43.5489C22.7888 43.6271 22.8238 43.6842 22.86 43.7414ZM11.2786 39.7932C11.3836 39.8153 11.4874 39.8433 11.5935 39.8585C11.6768 39.8712 11.7544 39.9085 11.8162 39.9658C12.0751 40.1991 12.3364 40.4219 12.5964 40.6493C12.6176 40.671 12.6375 40.694 12.6559 40.7181C12.6314 40.7274 12.6186 40.7391 12.6069 40.7368L8.07863 39.7897C8.1486 39.7453 8.17192 39.7267 8.19524 39.715C8.42848 39.5984 8.66172 39.4876 8.89495 39.3651C8.97011 39.3277 9.0562 39.3186 9.13751 39.3394C9.85238 39.4969 10.5649 39.6439 11.2786 39.7932V39.7932ZM9.50953 39.1167C9.76704 38.945 10.0437 38.8041 10.334 38.6968C10.6331 38.9235 10.9135 39.1739 11.1725 39.4456C11.1522 39.452 11.1308 39.4548 11.1095 39.4538C10.5789 39.3406 10.0483 39.2333 9.50953 39.1167ZM9.48388 40.3997L12.9078 41.1194C12.9673 41.1322 13.0244 41.1508 13.0874 41.1578C13.1562 41.1674 13.2203 41.1984 13.2705 41.2465L14.067 41.9463C14.0876 41.9669 14.1071 41.9887 14.1253 42.0116C14.1148 42.0233 14.1113 42.0291 14.1066 42.0315C14.0993 42.0332 14.0917 42.0332 14.0845 42.0315L6.76434 40.4918C6.75151 40.4918 6.73984 40.4743 6.70253 40.4452L7.54801 40.0346C7.60468 40.0108 7.66807 40.0083 7.72644 40.0276L9.48388 40.3997ZM7.48853 40.9561L11.1142 41.7189L14.4961 42.4187C14.6088 42.4412 14.7132 42.494 14.7982 42.5715C15.0186 42.7733 15.2483 42.9669 15.4734 43.1652C15.5177 43.2048 15.5585 43.2492 15.6017 43.2912C15.59 43.3028 15.5877 43.3086 15.583 43.3098C15.5758 43.3121 15.5681 43.3121 15.5608 43.3098C12.1743 42.5999 8.78806 41.8884 5.40225 41.1753C5.37309 41.1695 5.34392 41.1578 5.27279 41.1357C5.58999 40.9817 5.86521 40.8476 6.13927 40.7123C6.21211 40.6867 6.29151 40.6867 6.36435 40.7123L7.48853 40.9561ZM6.1591 41.6559L9.54102 42.3662L13.1912 43.1325C14.0996 43.3238 15.0081 43.5163 15.9177 43.7029C16.0608 43.729 16.1935 43.7953 16.3002 43.8942C16.5486 44.1216 16.8063 44.3397 17.0559 44.5578C17.0431 44.622 17.0069 44.5917 16.9824 44.5917C16.9517 44.5899 16.9213 44.5852 16.8914 44.5777L15.6984 44.3246L12.3165 43.6154L8.66639 42.8479L5.0384 42.0886L3.89554 41.8448C3.9188 41.8186 3.94502 41.7951 3.97367 41.7749C4.21507 41.6582 4.4588 41.5416 4.69787 41.4249C4.78986 41.3854 4.89313 41.3808 4.98825 41.4121C5.37892 41.4774 5.76843 41.5661 6.1591 41.6442V41.6559ZM45.148 18.5452L44.7982 19.161C44.769 19.1365 44.741 19.1237 44.727 19.1016C44.3383 18.4841 43.9496 17.8664 43.5609 17.2482C43.5548 17.2342 43.5497 17.2197 43.5457 17.205C43.6215 16.9717 43.7008 16.7151 43.8046 16.4574C43.8258 16.4736 43.8453 16.492 43.8629 16.5122L45.148 18.5452ZM43.9364 16.0561L44.1952 15.2956C44.2224 15.3142 44.2471 15.3362 44.2687 15.361C44.7235 16.081 45.1772 16.8014 45.6297 17.5223C45.6461 17.5516 45.6605 17.582 45.6728 17.6133C45.569 17.7975 45.4652 17.9853 45.3579 18.1708C45.3486 18.1894 45.3253 18.1999 45.2985 18.2198L43.9364 16.0561ZM44.6034 19.5075C44.495 19.7011 44.3818 19.9005 44.2757 20.0906C44.2512 20.0976 44.2442 20.1023 44.2396 20.1C44.2324 20.0974 44.2262 20.0924 44.2221 20.086L43.2168 18.502C43.2597 18.2181 43.3381 17.9406 43.4501 17.6762C43.5679 17.8034 44.5159 19.3045 44.6034 19.4958V19.5075ZM44.0798 20.4301C43.9632 20.6517 43.8466 20.8476 43.723 21.0657C43.6931 21.0311 43.6651 20.9949 43.639 20.9573C43.4058 20.5945 43.183 20.2294 42.9509 19.8679C42.9238 19.8316 42.906 19.7893 42.8991 19.7445C42.8922 19.6998 42.8964 19.654 42.9113 19.6113C42.9778 19.392 43.0279 19.168 43.092 18.9254C43.1191 18.9414 43.1439 18.961 43.1655 18.9838C43.4699 19.4515 43.7719 19.9309 44.0798 20.4184V20.4301ZM43.4967 21.2955C43.513 21.3212 43.5247 21.3492 43.541 21.3807C43.4337 21.5929 43.3159 21.7959 43.1912 22.0093C43.1492 21.9522 43.1165 21.9102 43.0874 21.8659C42.9358 21.6268 42.79 21.3842 42.6326 21.1486C42.6016 21.1056 42.5817 21.0557 42.5746 21.0032C42.5675 20.9507 42.5734 20.8973 42.5917 20.8476C42.6571 20.6353 42.7084 20.4184 42.7667 20.1851C42.798 20.2087 42.8265 20.2357 42.8518 20.2656C43.0656 20.6007 43.2802 20.9402 43.4955 21.2839L43.4967 21.2955ZM43.0104 22.3091C42.9008 22.5302 42.7765 22.7437 42.6384 22.9483C42.502 22.7313 42.383 22.5435 42.2676 22.3546C42.242 22.317 42.2305 22.2716 42.2349 22.2263C42.2932 21.9697 42.3515 21.7107 42.4378 21.4565C42.4623 21.4716 42.4798 21.4763 42.4868 21.4868C42.6594 21.7469 42.8308 22.0175 43.0092 22.2974L43.0104 22.3091ZM41.9609 23.2352C42.0052 23.0649 42.0518 22.897 42.1043 22.7022C42.2412 22.8721 42.3618 23.0544 42.4646 23.2469C42.348 23.4545 42.2314 23.6574 42.0961 23.8581C41.8769 23.5478 41.8769 23.5466 41.9609 23.2235V23.2352ZM41.9177 24.1683C41.831 24.337 41.7292 24.4975 41.6133 24.6477C41.653 24.4108 41.7091 24.177 41.7813 23.9479L41.9177 24.1683ZM42.4541 17.4033C41.9099 19.4694 41.3684 21.5346 40.8296 23.5991C40.7294 23.9786 40.6299 24.3577 40.5311 24.7363C40.5113 24.8087 40.4903 24.8798 40.4693 24.951C40.4436 24.944 40.425 24.951 40.4157 24.937C38.1463 22.6952 35.8761 20.4511 33.6052 18.2046C33.6071 18.1507 33.6122 18.097 33.6203 18.0436C33.9803 16.3602 34.3414 14.6775 34.7037 12.9955C34.8343 12.3875 34.9638 11.779 35.092 11.1702C35.106 11.1048 35.1259 11.0395 35.1422 10.9777C35.169 10.9777 35.1888 10.9777 35.1982 10.9847L42.481 17.2283C42.475 17.284 42.466 17.3393 42.4541 17.394V17.4033ZM33.3264 36.6206L31.2413 37.752L30.8402 37.969C29.2576 38.8251 27.9772 39.5132 27.9107 39.5389C27.702 39.3721 20.734 32.8754 20.6104 32.7144L28.9253 27.6733L28.9719 27.6791C28.9794 27.681 28.9865 27.6842 28.9929 27.6885L36.9439 34.4628C36.9731 34.4873 37.0022 34.513 37.0291 34.5398C37.0386 34.5517 37.0468 34.5646 37.0536 34.5783C37.0244 34.5993 36.6909 34.7847 36.1661 35.0728L35.8897 35.2245L35.4232 35.4811L35.0804 35.6677L34.5288 35.9686L34.1404 36.1797L33.7393 36.3978L33.3264 36.6206ZM33.5014 37.717L33.2518 38.1439C33.1787 38.0795 33.1206 37.9999 33.0816 37.9106C33.2033 37.8123 33.3476 37.7458 33.5014 37.717V37.717ZM26.3608 41.5719C26.4451 41.5026 26.538 41.4446 26.6372 41.3993C26.7235 41.3491 26.8122 41.3048 26.9124 41.2511C26.9427 41.2838 26.9708 41.3185 26.9964 41.355L28.2536 43.3448C28.2742 43.3827 28.2929 43.4216 28.3095 43.4614C28.299 43.4801 28.2967 43.4883 28.2909 43.4929C28.2859 43.4979 28.2792 43.5008 28.2722 43.5011H27.5725L26.3608 41.5719ZM27.1853 43.4684C26.934 43.4994 26.6798 43.4994 26.4285 43.4684C26.1334 43.0019 25.8314 42.5213 25.5154 42.0175L26.0705 41.7107C26.1017 41.7419 26.1306 41.7754 26.1568 41.811C26.4794 42.3227 26.802 42.8351 27.1247 43.3483C27.1492 43.3868 27.1667 43.4323 27.1877 43.4696L27.1853 43.4684ZM27.2658 41.2173C27.2448 41.1847 27.2273 41.152 27.2098 41.1205C27.377 40.9813 27.5672 40.8723 27.7719 40.7986C28.3348 41.6866 28.8965 42.5785 29.457 43.4743C29.4197 43.4918 29.4081 43.5034 29.3953 43.5034H28.7445L28.7095 43.4859C28.7025 43.4825 28.6964 43.4773 28.692 43.4708C28.2178 42.7204 27.7432 41.9689 27.2681 41.2162L27.2658 41.2173ZM28.0378 40.6516C28.1213 40.5804 28.2148 40.5218 28.3154 40.4778C28.4017 40.4277 28.4915 40.3845 28.5719 40.3425C28.5821 40.3439 28.5923 40.3459 28.6022 40.3484C28.6095 40.3514 28.616 40.3562 28.6209 40.3624C29.1783 41.2442 29.7354 42.1263 30.292 43.0089C30.3119 43.0404 30.3282 43.0754 30.3527 43.1197C30.2815 43.2433 30.2104 43.3693 30.1346 43.4999H29.8302C29.2347 42.5536 28.638 41.6046 28.0402 40.6528L28.0378 40.6516ZM28.8751 40.1921C29.052 40.0756 29.2358 39.97 29.4256 39.876C29.4527 39.9023 29.4777 39.9308 29.5002 39.9611C29.9503 40.6742 30.3993 41.3876 30.8471 42.1014C30.8635 42.1271 30.8763 42.1539 30.8961 42.1913L30.5299 42.8199L28.8751 40.1921ZM29.7066 39.7255C29.9095 39.6147 30.0833 39.5202 30.2512 39.4304L30.2839 39.4421C30.2911 39.4447 30.2975 39.4491 30.3025 39.4549C30.6804 40.0498 31.0571 40.6446 31.4419 41.2488C31.3253 41.4576 31.2087 41.6571 31.0839 41.8658C31.0603 41.8486 31.0387 41.8286 31.0197 41.8063C30.5859 41.1193 30.1568 40.4335 29.7089 39.7244L29.7066 39.7255ZM30.5544 39.2835C30.7238 39.1685 30.9021 39.0671 31.0874 38.9802C31.0997 38.9811 31.1118 38.9835 31.1235 38.9872C31.131 38.9894 31.1375 38.9939 31.1422 39C31.4026 39.4075 31.6619 39.8153 31.92 40.2236C31.9398 40.2551 31.9562 40.2889 31.976 40.3262C31.8676 40.5315 31.7544 40.7298 31.6343 40.9094C31.623 40.9131 31.6112 40.9155 31.5993 40.9164C31.5918 40.9137 31.5855 40.9083 31.5818 40.9012C31.2425 40.3659 30.9031 39.8282 30.5568 39.2823L30.5544 39.2835ZM31.4104 38.8332C31.5795 38.6976 31.7704 38.5915 31.9748 38.5195L32.5253 39.3954L32.1754 39.995C32.0541 39.8865 31.6681 39.2975 31.4127 38.8321L31.4104 38.8332ZM32.2384 38.3667C32.4134 38.2485 32.5966 38.1429 32.7865 38.0506C32.893 38.1777 32.9864 38.3153 33.0652 38.4612L32.7014 39.0875C32.5288 38.8461 32.3912 38.6081 32.2407 38.369L32.2384 38.3667ZM20.8903 31.2028C21.3288 30.1281 21.7684 29.0547 22.2092 27.9824L24.0751 23.4195C24.1824 23.1582 24.1264 23.2247 24.3748 23.1034L31.7113 19.5413C31.7789 19.5086 31.8477 19.4783 31.969 19.4246C31.9235 19.5413 31.9025 19.5926 31.878 19.6463C30.8129 21.9394 29.7486 24.2332 28.685 26.5279C28.6344 26.6387 28.5504 26.7309 28.4448 26.7915C25.9655 28.2915 23.4878 29.7926 21.0116 31.2949C20.9603 31.3264 20.9066 31.3532 20.8506 31.3847C20.8215 31.3019 20.8716 31.2564 20.8926 31.2051L20.8903 31.2028ZM29.6366 26.8988C29.6915 26.7215 33.0792 19.4211 33.2052 19.2205L40.1206 26.066L40.1346 26.1068C40.1363 26.1141 40.1363 26.1217 40.1346 26.129L37.7486 33.6685C37.7411 33.6901 37.7321 33.7111 37.7218 33.7315C37.718 33.7383 37.7129 33.7443 37.7066 33.749L37.688 33.7618C37.5375 33.6662 29.7696 27.0469 29.6448 26.9011L29.6366 26.8988ZM34.095 10.9952C33.906 11.8816 33.7136 12.7669 33.5235 13.6534C33.2258 15.0422 32.9295 16.4317 32.6349 17.822C32.6271 17.8778 32.6049 17.9306 32.5703 17.975C32.5357 18.0194 32.49 18.054 32.4378 18.0751C29.8722 19.3193 27.3097 20.5634 24.7503 21.8076C24.6979 21.8332 24.6419 21.8507 24.5859 21.8729C24.5789 21.8449 24.5696 21.8286 24.5719 21.8169C25.2841 19.1933 25.9982 16.5674 26.7142 13.9391L34.0845 10.8459C34.1428 10.8972 34.1136 10.9509 34.1031 10.9975L34.095 10.9952ZM25.7428 13.321C25.4839 13.4714 25.2308 13.6301 24.9743 13.7875C24.9439 13.8062 24.9113 13.8213 24.881 13.8365C24.8681 13.8213 24.8623 13.8155 24.8611 13.8108C24.8617 13.8028 24.8646 13.7952 24.8693 13.7887L24.9055 13.7304L26.2326 11.737L26.271 11.6764V11.667L26.3259 11.5819C26.3372 11.6542 26.3249 11.7282 26.2909 11.793C26.1626 12.2269 26.0308 12.6596 25.9084 13.0959C25.899 13.1425 25.8801 13.1867 25.8531 13.2258C25.826 13.2649 25.7913 13.2981 25.7509 13.3233L25.7428 13.321ZM26.692 10.426C26.6619 10.529 26.6159 10.6266 26.5556 10.7153C25.796 11.8529 25.0372 12.9905 24.2792 14.1281C24.2319 14.2072 24.1674 14.2746 24.0903 14.3252C23.7276 14.541 23.3684 14.7626 23.0069 14.9807C22.9693 14.9984 22.9303 15.0128 22.8903 15.0239L27.1795 8.59595L27.2075 8.60645C27.1958 8.6601 27.1888 8.71492 27.1737 8.76741C27.0244 9.32261 26.8541 9.8743 26.7002 10.4237L26.692 10.426ZM22.9521 16.1891C23.714 15.7225 24.4751 15.2595 25.2355 14.7999C25.2948 14.7497 25.3665 14.7163 25.4431 14.7031C25.4461 14.7291 25.4461 14.7553 25.4431 14.7813C24.748 17.3473 24.0526 19.9083 23.3568 22.4642C20.5416 23.9887 17.7451 25.5237 14.9078 27.0633C14.9253 26.9723 14.9311 26.921 14.9451 26.8732C15.2343 25.8623 15.5239 24.8514 15.8139 23.8406C16.1766 22.5785 16.5369 21.3165 16.9031 20.0557C16.9778 19.7944 16.9183 19.8655 17.1492 19.7244L22.9521 16.1891ZM19.3673 25.7849L22.5393 24.0552C22.6046 24.019 22.6722 23.9864 22.7434 23.949C22.7737 24.0342 22.72 24.0913 22.6955 24.1508C22.4273 24.8133 22.1552 25.4743 21.8792 26.1337C21.0668 28.1157 20.2543 30.0986 19.4419 32.0822C19.3924 32.218 19.2972 32.3323 19.1725 32.4053C16.729 33.8703 14.287 35.338 11.8466 36.8084C11.6846 36.9072 11.514 36.9912 11.3369 37.0592C11.3388 36.9873 11.3567 36.9167 11.3894 36.8527L12.6034 33.5449C13.2013 31.9119 13.7995 30.2829 14.3982 28.6577C14.4938 28.3976 14.4355 28.4676 14.6652 28.3428C16.2357 27.4882 17.803 26.6356 19.3673 25.7849ZM24.4133 42.6275C24.5906 42.9004 24.7632 43.1652 24.9404 43.4673H24.1859C24.1186 43.3859 24.0596 43.298 24.0098 43.2048C23.9483 43.1241 23.8988 43.035 23.8629 42.9401C24.0378 42.8223 24.2232 42.7325 24.4133 42.6275ZM24.7049 42.4758C24.8765 42.3677 25.0536 42.2684 25.2355 42.1784C25.5295 42.5917 25.802 43.02 26.0518 43.4614C26.0254 43.4714 25.998 43.4789 25.9702 43.4836H25.3381C25.0991 43.166 24.8873 42.8289 24.7049 42.4758ZM35.1235 47.5799L31.2518 44.0866C31.19 44.0306 31.1352 43.97 31.0652 43.9105C31.1025 43.8417 31.134 43.781 31.1678 43.7227C32.4895 41.4506 33.8112 39.1785 35.1329 36.9064C35.2037 36.7799 35.3104 36.6772 35.4396 36.6113C36.1918 36.2089 36.9393 35.7948 37.6891 35.3924C37.7498 35.3598 37.8057 35.3306 37.885 35.2933L43.997 41.1823C44.0236 41.2112 44.0485 41.2416 44.0716 41.2733L38.4821 50.5589C38.3912 50.5659 38.355 50.4959 38.3072 50.4527C37.246 49.4963 36.1848 48.5387 35.1235 47.5799V47.5799ZM38.5393 34.5316C38.6104 34.2983 38.678 34.0826 38.7469 33.8633C39.2646 32.2303 39.782 30.5974 40.299 28.9645C40.3487 28.8014 40.4176 28.6447 40.5043 28.4979C41.4707 26.8735 42.4359 25.248 43.3999 23.6213C43.4466 23.542 43.4955 23.465 43.5434 23.388C43.6915 23.4953 50.4565 30.0527 50.6023 30.2288C50.5323 30.3956 44.8425 40.009 44.6022 40.3635L38.5393 34.5316ZM46.0402 39.9238L48.839 35.2058C49.7719 33.6265 50.7084 32.0472 51.6483 30.4679C51.8559 30.118 52.0565 29.7681 52.2606 29.4112C52.2944 29.3529 52.3329 29.2946 52.3679 29.2444C52.3793 29.2473 52.3906 29.2508 52.4017 29.2549C52.4077 29.2584 52.4126 29.2637 52.4157 29.2701C52.4646 29.4637 52.5148 29.6561 52.5661 29.8591C52.5253 29.9291 52.4833 30.0014 52.4402 30.0737C50.673 33.0363 48.9062 35.9993 47.1399 38.9627C47.063 39.0952 46.964 39.2136 46.8471 39.3126C46.6699 39.4631 46.4973 39.617 46.3212 39.771L46.067 39.995L45.9935 40.0673C45.9851 40.0415 45.9851 40.0137 45.9935 39.988C46.0019 39.9622 46.0182 39.9397 46.0402 39.9238V39.9238ZM47.92 38.2431C47.92 38.2314 47.9329 38.2209 47.9387 38.2104C48.3352 37.5409 48.7336 36.8722 49.134 36.2042L52.516 30.5274C52.5544 30.4621 52.5964 30.398 52.6664 30.2872C52.7399 30.5811 52.8028 30.8295 52.8658 31.0768C52.8728 31.106 52.881 31.1363 52.888 31.1654C52.8541 31.2273 52.8227 31.2891 52.7865 31.3474C51.6701 33.2206 50.5533 35.0934 49.4361 36.9659C49.3879 37.0529 49.326 37.1316 49.253 37.1991L49.1702 37.2703L47.969 38.32C47.9422 38.3445 47.9095 38.3644 47.8792 38.3877C47.8384 38.3212 47.8955 38.2827 47.92 38.2431V38.2431ZM50.2699 36.1669C51.1647 34.6685 52.0588 33.1701 52.9521 31.6717C52.9521 31.6623 52.9778 31.6635 53.0069 31.6542C53.0419 31.7848 53.0792 31.9154 53.1107 32.0461C53.1422 32.1767 53.1609 32.2793 53.1853 32.396L53.2063 32.4963C53.1329 32.6223 53.0617 32.7494 52.9883 32.8742C52.5836 33.5554 52.1719 34.2342 51.7731 34.9154C51.7115 35.0217 51.6327 35.1171 51.5399 35.1976L51.4862 35.2443C51.092 35.586 50.7002 35.9313 50.3072 36.2754C50.2687 36.3092 50.2267 36.3418 50.1824 36.3792C50.1824 36.3512 50.1684 36.3325 50.1743 36.3232C50.2081 36.2707 50.2396 36.2194 50.2699 36.1669V36.1669ZM52.4856 34.3077L52.5813 34.1374C52.9101 33.5542 53.2075 33.0771 53.3276 32.95C53.3744 33.0924 53.4133 33.2372 53.4442 33.3839C53.4524 33.4271 53.4582 33.4702 53.4629 33.5145L52.5603 34.2983C52.5488 34.3163 52.5346 34.3325 52.5183 34.3462C52.5055 34.3543 52.4856 34.3462 52.4681 34.3462L52.4856 34.3077ZM56.6267 28.7954C56.692 28.8599 56.7457 28.9353 56.7853 29.0181C57.176 29.8264 57.5702 30.6347 57.9609 31.443C57.9816 31.4728 57.997 31.506 58.0063 31.541C58.0087 31.5579 58.0055 31.5752 57.997 31.59C57.8442 31.4967 53.5002 27.9742 53.2343 27.7293L53.2588 27.685C53.5282 27.2079 53.8022 26.7414 54.0821 26.2573C54.1404 26.3098 54.1813 26.3425 54.2174 26.3739C55.0229 27.1819 55.8275 27.989 56.6314 28.7954H56.6267ZM55.9958 26.5559C55.9997 26.5701 56.0024 26.5845 56.004 26.5991L56.018 26.6877H56.0087C55.9912 26.6877 55.976 26.6877 55.9702 26.6877C55.576 26.2989 55.1826 25.9101 54.79 25.5213C54.7364 25.4677 54.6886 25.4047 54.6442 25.3592L54.6547 25.3312C54.8293 24.9542 55.0377 24.5939 55.2775 24.2546C55.3118 24.3243 55.3418 24.3959 55.3673 24.4692C55.4967 24.832 55.7265 25.5866 56.0005 26.5559H55.9958ZM48.6489 14.3684C48.6594 14.3671 48.6699 14.3671 48.6804 14.3684C48.6879 14.3693 48.6951 14.3721 48.7014 14.3765C48.7772 14.4407 48.8553 14.5037 48.9346 14.569L56.032 20.787C56.0437 20.8027 56.0538 20.8195 56.0623 20.8371C54.4297 23.659 52.797 26.4789 51.1643 29.2969C51.1499 29.3006 51.135 29.3025 51.12 29.3027C51.1127 29.3015 51.1058 29.2983 51.1002 29.2934L44.2407 22.645C44.1859 22.5925 44.1334 22.5365 44.0705 22.4724L48.6489 14.3684ZM47.3125 14.2097L47.5737 14.1806C47.5544 14.2723 47.5118 14.3574 47.4501 14.4279L47.4431 14.4384C47.3796 14.3745 47.3321 14.2966 47.3043 14.2109L47.3125 14.2097ZM46.9544 14.2587C47.0629 14.4115 47.1643 14.5795 47.2716 14.7626L46.9218 15.3796C46.6812 15.0606 46.4652 14.7237 46.2757 14.3719L46.9544 14.2587ZM45.2436 14.485C45.2751 14.4745 45.7498 14.415 45.9177 14.3964L46.734 15.6981C46.6229 15.9179 46.4995 16.1313 46.3644 16.3372C46.3434 16.3011 46.3329 16.2824 46.3212 16.2649C45.9574 15.6872 45.5943 15.1094 45.232 14.5317C45.211 14.4827 45.2378 14.4885 45.2495 14.485H45.2436ZM44.8646 14.513L46.2127 16.6347C46.1195 16.8528 45.9795 17.0487 45.8629 17.2727C45.828 17.236 45.7957 17.197 45.7661 17.156C45.3148 16.4422 44.8658 15.726 44.4122 15.0122C44.3814 14.9731 44.3623 14.9261 44.3569 14.8766C44.3516 14.8271 44.3602 14.7771 44.3818 14.7323C44.407 14.6743 44.4291 14.6152 44.4483 14.555L44.8646 14.513ZM37.913 2.25899C37.9186 2.24518 37.926 2.23222 37.9352 2.2205C37.9482 2.20957 37.9618 2.19944 37.976 2.19018L45.1469 9.27012C45.1584 9.3505 45.1432 9.43246 45.1037 9.50339L43.5958 13.9356C43.3626 14.6261 43.1266 15.3166 42.888 16.0071C42.8681 16.0643 42.8448 16.1238 42.8227 16.1798C42.7983 16.1712 42.7751 16.1595 42.7538 16.1448L35.4407 9.85331C35.4359 9.83959 35.432 9.82556 35.4291 9.81132C35.4273 9.80403 35.4273 9.79644 35.4291 9.78916C36.2563 7.27755 37.0843 4.76749 37.913 2.25899ZM28.8168 6.78339C28.8273 6.74607 28.8425 6.70991 28.8495 6.67258C28.8561 6.6308 28.8733 6.59141 28.8994 6.55814C28.9255 6.52487 28.9597 6.49882 28.9987 6.48247C29.2436 6.35533 29.4862 6.2212 29.7299 6.09056L36.5836 2.42579C36.652 2.39266 36.7221 2.36307 36.7935 2.33714L36.8203 2.32198L36.8098 2.35347C36.7923 2.42812 36.7807 2.50393 36.7562 2.57625C36.0028 4.86158 35.2483 7.14653 34.4926 9.43108C34.4728 9.4894 34.4518 9.54772 34.4331 9.59787C34.2617 9.69818 27.3556 12.6013 27.1398 12.6655C27.0909 12.6153 27.1282 12.5651 27.1398 12.5162L27.8501 10.0808C28.1696 8.98124 28.4903 7.88173 28.8122 6.78222L28.8168 6.78339ZM26.3212 8.33818C26.6711 8.09207 27.0209 7.83897 27.3708 7.58936C27.4197 7.55437 27.4699 7.52288 27.52 7.49022C27.5294 7.50072 27.5387 7.51005 27.5468 7.52054C27.506 7.5847 27.4676 7.65001 27.4244 7.71416C25.7443 10.232 24.0643 12.7502 22.3842 15.2688C22.3099 15.3851 22.2092 15.4822 22.0903 15.5523C21.7404 15.7587 21.3906 15.9733 21.0489 16.1844C20.9952 16.1436 21.0337 16.1144 21.0489 16.0865C21.1235 15.9698 21.2017 15.8532 21.2821 15.7365C22.8549 13.3781 24.4281 11.0193 26.0017 8.6601C26.0851 8.53332 26.192 8.42366 26.3165 8.33701L26.3212 8.33818ZM24.1206 9.91163C24.4705 9.67019 24.8098 9.42058 25.1539 9.17447C25.2145 9.13132 25.2775 9.08933 25.3591 9.03334C25.3507 9.10791 25.3179 9.17762 25.2658 9.23163C24.755 9.99911 24.2434 10.7666 23.7311 11.5341C22.638 13.167 21.5461 14.8038 20.4553 16.4445C20.3812 16.5605 20.2809 16.6576 20.1626 16.728C19.8384 16.9193 19.5177 17.1175 19.1958 17.3112C19.1548 17.3409 19.1072 17.3601 19.0571 17.3671C19.1084 17.2855 19.1399 17.233 19.1737 17.1829C20.7193 14.8688 22.2637 12.5539 23.8069 10.2382C23.8876 10.1099 23.9926 9.99859 24.1159 9.91046L24.1206 9.91163ZM21.8431 11.5446C22.2442 11.26 22.6442 10.973 23.0442 10.6873C23.0691 10.6715 23.0948 10.6571 23.1212 10.6441L23.1503 10.6721C23.1282 10.7094 23.1084 10.7491 23.0839 10.7887C21.5523 13.0834 20.0215 15.3773 18.4915 17.6704C18.4378 17.7548 18.3651 17.8255 18.2792 17.8769C18.081 17.9935 17.8862 18.1101 17.6961 18.2268C17.639 18.1894 17.6751 18.1556 17.688 18.1253C17.8407 17.7649 17.9923 17.4033 18.1544 17.0441C18.1864 16.9671 18.2255 16.8933 18.271 16.8236C19.4015 15.1285 20.5319 13.4345 21.6623 11.7417C21.708 11.6638 21.7682 11.5953 21.8396 11.5399L21.8431 11.5446ZM18.9591 15.1242C19.253 14.4314 19.5461 13.7389 19.8384 13.0469C19.8709 12.9693 19.9257 12.9031 19.9958 12.8567C20.3084 12.6351 20.6197 12.41 20.9288 12.1861L20.9952 12.1627C20.9952 12.1826 20.9859 12.2024 20.9789 12.2211C20.9718 12.2316 20.9636 12.2414 20.9544 12.2502L19.1573 14.9329L19.0162 15.1417L18.8996 15.3283L18.8728 15.3143L18.9591 15.1242ZM9.62965 22.4876C10.0541 21.5754 10.4794 20.6637 10.9054 19.7524C11.3665 18.7641 11.8271 17.7762 12.2874 16.7886C12.3347 16.6764 12.4219 16.5858 12.5323 16.5343C14.4541 15.6059 16.3741 14.6755 18.292 13.7432C18.3387 13.721 18.3877 13.7059 18.481 13.6685C18.2349 14.2517 18.0145 14.7778 17.7812 15.3073C17.2611 16.5281 16.7414 17.7505 16.2221 18.9744C16.1747 19.0946 16.0846 19.1931 15.969 19.2508C13.9025 20.3682 11.838 21.4887 9.77542 22.6124C9.70956 22.6585 9.63494 22.6906 9.55618 22.7068C9.56019 22.6275 9.58779 22.5511 9.63547 22.4876H9.62965ZM6.99524 31.8606L7.01273 31.7941C7.21215 30.9648 7.40924 30.1344 7.60982 29.3051C7.99855 27.7071 8.38727 26.1092 8.776 24.5112C8.783 24.4809 8.79117 24.4506 8.79583 24.4203C8.80496 24.3675 8.82713 24.3179 8.86033 24.2759C8.89353 24.234 8.93671 24.201 8.98592 24.18C9.73111 23.7811 10.474 23.3763 11.2157 22.9728L14.0903 21.4052C14.5568 21.1524 15.0232 20.9009 15.4897 20.6505C15.5422 20.6213 15.5982 20.5992 15.6751 20.563C15.6793 20.6037 15.6793 20.6448 15.6751 20.6855C15.564 21.0743 15.4524 21.4662 15.3404 21.8612L13.8466 27.0691C13.7987 27.2394 13.7428 27.4074 13.7008 27.5788C13.6848 27.6424 13.6558 27.7019 13.6157 27.7537C13.5755 27.8055 13.5251 27.8484 13.4675 27.8797C12.9882 28.1853 12.5136 28.4991 12.0366 28.8129L9.71361 30.3163C8.87552 30.8606 8.03703 31.4049 7.19815 31.9493C7.12818 31.9936 7.05123 32.0274 6.97776 32.0659C6.96754 31.9966 6.97557 31.9258 7.00108 31.8606H6.99524ZM3.31361 40.7788C3.81507 39.6567 4.31769 38.5354 4.82148 37.4149C5.36569 36.1949 5.91225 34.9752 6.46113 33.756C6.51529 33.63 6.6069 33.5237 6.72352 33.4516C8.76279 32.1335 10.8009 30.8136 12.8378 29.4917C12.8972 29.4425 12.9658 29.4057 13.0396 29.3832C13.04 29.4698 13.0179 29.555 12.9754 29.6305C12.1404 31.9096 11.3047 34.1879 10.4681 36.4655C10.3414 36.8123 10.2135 37.1583 10.0845 37.5036C9.98999 37.7613 10.0401 37.6983 9.81157 37.8103L5.4967 39.904L3.44422 40.8989C3.38475 40.9281 3.32761 40.9526 3.24364 40.9864C3.24766 40.9112 3.27405 40.8389 3.31943 40.7788H3.31361ZM3.78008 42.7138C3.60399 42.5657 3.4209 42.4245 3.24248 42.2787C3.20866 42.2519 3.17834 42.2204 3.13985 42.1843C3.20625 42.1237 3.28625 42.0801 3.37309 42.0571C3.41782 42.0495 3.46372 42.0523 3.5072 42.0653L5.24248 42.4269L8.6244 43.1372L12.0285 43.8498L15.7019 44.6208C16.285 44.7445 16.8681 44.8704 17.4594 44.9882C17.6057 45.0266 17.734 45.1149 17.8221 45.2378L17.3194 45.5738C17.2931 45.5892 17.2637 45.5987 17.2333 45.6017C17.2029 45.6048 17.1722 45.6012 17.1433 45.5913C16.8798 45.5364 16.6174 45.4839 16.3538 45.428L12.9544 44.7153L9.52819 43.9968C8.39467 43.7589 7.26036 43.5209 6.12527 43.283C5.44189 43.1391 4.75812 42.9964 4.07396 42.8549C3.96844 42.8325 3.8702 42.784 3.78824 42.7138H3.78008ZM5.47338 44.0691C5.18067 43.8359 4.89029 43.6026 4.59291 43.3623C4.56997 43.3426 4.54817 43.3215 4.52761 43.2993C4.55443 43.2842 4.56725 43.2702 4.57658 43.2725L16.8728 45.8385C16.7834 45.9217 16.6853 45.9948 16.5801 46.0566C16.4728 46.1301 16.3597 46.1978 16.2547 46.2748C16.219 46.3033 16.177 46.323 16.1322 46.3323C16.0875 46.3417 16.0412 46.3403 15.997 46.3284C15.7428 46.2689 15.4862 46.2211 15.2308 46.1675L11.5585 45.3965L7.71011 44.58C7.03372 44.4377 6.35773 44.2966 5.68212 44.1566C5.60927 44.1438 5.54052 44.1138 5.48154 44.0691H5.47338ZM7.14568 45.3976C6.83081 45.1515 6.52061 44.8996 6.21274 44.6488C6.19816 44.6323 6.18598 44.6139 6.17658 44.594C6.18591 44.594 6.19174 44.5812 6.19524 44.5823L15.7159 46.571C15.7439 46.6293 15.7043 46.648 15.674 46.6678C15.4955 46.7845 15.3136 46.9011 15.1375 47.0259C15.1045 47.0504 15.0664 47.0671 15.026 47.0748C14.9856 47.0824 14.944 47.0809 14.9043 47.0702C14.4926 46.9816 14.0786 46.8976 13.6658 46.8113L10.2652 46.0963C9.29573 45.8934 8.32741 45.69 7.36025 45.4863C7.28294 45.4734 7.20958 45.4431 7.14568 45.3976V45.3976ZM12.3165 48.8968C12.1999 48.9738 12.0833 49.0484 11.9667 49.1219L11.8746 49.1825C11.8256 49.1511 11.7696 49.1114 11.7113 49.0659C11.4894 48.9098 11.2838 48.7316 11.0979 48.534L11.681 48.6507L12.3224 48.7848C12.3297 48.7873 12.3364 48.7913 12.3422 48.7965L12.3818 48.8291C12.3606 48.8518 12.338 48.8733 12.3142 48.8933L12.3165 48.8968ZM12.79 48.5795L11.6635 48.3463C11.3264 48.2751 10.9894 48.2005 10.6512 48.1316C10.5753 48.1219 10.503 48.093 10.4413 48.0477C10.1311 47.7969 9.81973 47.5484 9.50836 47.2977C9.4825 47.2691 9.45873 47.2387 9.43723 47.2067L13.4652 48.0593C13.4757 48.0593 13.4827 48.0826 13.4967 48.1025C13.267 48.2693 13.0279 48.4174 12.7877 48.576L12.79 48.5795ZM12.5474 47.5566C11.3999 47.3163 10.2516 47.0757 9.10254 46.8346C8.94455 46.8067 8.79659 46.7379 8.67338 46.6352C8.44014 46.4299 8.18359 46.2398 7.93986 46.0415C7.90021 46.01 7.84306 45.9902 7.83723 45.9167C7.86595 45.9143 7.89481 45.9143 7.92353 45.9167C8.46814 46.0077 14.4238 47.2778 14.6407 47.3537L13.9095 47.84L12.5474 47.5566ZM21.583 51.6226L18.1264 51.7393H18.1031C18.0426 51.7472 17.9811 51.7408 17.9236 51.7205C17.866 51.7003 17.8141 51.6667 17.7719 51.6226C16.6913 50.7121 15.6075 49.8031 14.5206 48.8956C14.4693 48.8525 14.4215 48.8058 14.3597 48.7487L17.0582 46.9559C17.2413 47.0726 22.3912 51.4185 22.5393 51.5783C22.1894 51.597 21.8874 51.6086 21.5807 51.6191L21.583 51.6226ZM24.2314 51.506C24.1713 51.5142 24.1102 51.5086 24.0526 51.4896C23.995 51.4706 23.9425 51.4387 23.899 51.3963C22.6077 50.3031 21.3152 49.2144 20.0215 48.1305C19.3918 47.6009 18.7628 47.0706 18.1346 46.5395C18.0775 46.4917 18.018 46.4404 17.9678 46.3891C18.256 46.1676 18.5557 45.9616 18.8658 45.772C18.9013 45.7574 18.938 45.7457 18.9754 45.7371L23.99 44.5485H24.0355C26.1175 46.648 28.2127 48.7603 30.3212 50.8855C30.2268 50.9165 30.1288 50.9353 30.0296 50.9415L27.7136 51.1747C27.0139 51.2435 26.306 51.3089 25.6028 51.3777C25.1457 51.408 24.6862 51.45 24.2291 51.5025L24.2314 51.506ZM24.5882 52.9628C24.5667 52.93 24.5491 52.8947 24.5358 52.8578C24.5159 52.7412 24.5008 52.6339 24.4821 52.5079C24.5083 52.4956 24.5357 52.4858 24.5638 52.4787L24.6582 52.4717L24.8471 52.4589C24.8333 52.5501 24.7959 52.6362 24.7387 52.7085L24.7072 52.7633C24.6699 52.8205 24.6314 52.88 24.5859 52.9593L24.5882 52.9628ZM24.7119 53.8959C24.685 53.7536 24.6757 53.6078 24.6582 53.4643L24.7282 53.3384C24.7702 53.2602 24.8133 53.1809 24.8576 53.1051C24.9871 52.88 25.1189 52.656 25.2553 52.4204L26.0215 52.3411C25.9503 52.5207 25.2565 53.7291 24.9474 54.2283C24.9058 54.299 24.8607 54.3675 24.8122 54.4336C24.7625 54.2557 24.7281 54.0738 24.7095 53.8901L24.7119 53.8959ZM25.0617 55.9336C25.0034 55.5988 24.9521 55.3201 24.9089 55.0401C24.9073 54.988 24.9172 54.9362 24.9381 54.8885C24.9431 54.8747 24.9494 54.8615 24.9568 54.8488L24.9812 54.8057C24.9858 54.7999 24.9897 54.7936 24.9929 54.787L25.0384 54.7077L26.3294 52.4752C26.3632 52.4158 26.4005 52.3586 26.4367 52.298L27.1748 52.228C27.1837 52.2541 27.1837 52.2824 27.1748 52.3085C27.1611 52.3413 27.1439 52.3725 27.1235 52.4018C26.6026 53.3069 26.081 54.2112 25.5585 55.1148C25.4279 55.3399 25.2985 55.5673 25.1678 55.7924L25.141 55.8309C25.113 55.8508 25.0885 55.8799 25.0536 55.9277L25.0617 55.9336ZM25.2017 56.6334C25.1699 56.5757 25.1563 56.5098 25.1625 56.4443C25.1688 56.3788 25.1946 56.3166 25.2366 56.266L25.2856 56.1808C25.8438 55.2197 26.4001 54.2579 26.9544 53.2952C27.1651 52.9305 27.3766 52.5651 27.5888 52.1988C27.8384 52.1288 28.095 52.1533 28.3434 52.1008C28.3504 52.1211 28.3531 52.1425 28.3515 52.1638C28.3386 52.213 28.3151 52.2588 28.2827 52.298C27.9002 52.9643 27.5165 53.6292 27.1317 54.2925C26.8553 54.7719 26.5766 55.2489 26.3037 55.7295C26.2787 55.7734 26.2507 55.8155 26.2197 55.8554C26.171 55.918 26.1137 55.9733 26.0495 56.0199C25.8046 56.1925 25.5667 56.3698 25.3253 56.5517C25.2821 56.5751 25.2436 56.5984 25.1935 56.6311L25.2017 56.6334ZM41.4302 56.9915C38.7231 59.3032 36.0164 61.6146 33.3101 63.9256C33.2921 63.9377 33.2725 63.9472 33.2518 63.9536C33.0909 63.8568 25.8221 57.7438 25.6576 57.5653C25.6973 57.5315 25.7334 57.4942 25.7743 57.4639L25.8699 57.3939L32.9684 52.1452C33.0734 52.067 33.1807 51.9935 33.2833 51.9119C33.3604 51.8477 33.4583 51.8141 33.5585 51.8174C34.3873 51.8314 35.2172 51.8427 36.0483 51.8512C36.0979 51.8513 36.147 51.8617 36.1924 51.8818C36.2378 51.9018 36.2785 51.9312 36.3119 51.9679C36.6617 52.3038 37.0116 52.6374 37.3614 52.9721L41.0932 56.5413L41.3871 56.8212L41.4839 56.9145C41.4654 56.9411 41.4447 56.966 41.4221 56.9891L41.4302 56.9915ZM51.5317 49.0601C50.4736 49.8905 49.4143 50.7202 48.3539 51.5491L42.481 56.1342C42.4203 56.182 42.3643 56.2263 42.2792 56.2858C40.7399 54.8162 39.2168 53.364 37.6985 51.9131C37.7276 51.8501 37.7708 51.8664 37.8058 51.8664C38.039 51.8664 38.2722 51.8664 38.4973 51.8734C38.6125 51.8835 38.7281 51.8584 38.8287 51.8013C38.9293 51.7442 39.0102 51.6579 39.0606 51.5538C39.6856 50.5041 40.3189 49.4543 40.9486 48.4116L43.8804 43.5326L43.997 43.3401H44.0262C44.0335 43.3389 44.041 43.3389 44.0483 43.3401L51.5224 48.7452L51.6938 48.8735C51.667 48.9691 51.5865 49.0053 51.5235 49.0542L51.5317 49.0601ZM60.9778 40.6866L52.5474 48.2284C52.3585 48.127 45.1084 42.8923 44.7002 42.5657C44.7329 42.484 44.8087 42.4409 44.8705 42.3872C46.0312 41.3678 47.1927 40.3491 48.355 39.3313L53.8361 34.5281L54.0297 34.3613C54.0587 34.3788 54.0867 34.3979 54.1136 34.4185L61.0664 40.5945C61.0373 40.6249 61.0065 40.6537 60.9743 40.6808L60.9778 40.6866Z"
        fill="#22444B" />
    <script xmlns="" />
</svg>